<?xml version="1.0" encoding="UTF-8" standalone="no"?>
<!-- Created with Inkscape (http://www.inkscape.org/) -->

<svg
   xmlns:dc="http://purl.org/dc/elements/1.1/"
   xmlns:cc="http://creativecommons.org/ns#"
   xmlns:rdf="http://www.w3.org/1999/02/22-rdf-syntax-ns#"
   xmlns:svg="http://www.w3.org/2000/svg"
   xmlns="http://www.w3.org/2000/svg"
   xmlns:sodipodi="http://sodipodi.sourceforge.net/DTD/sodipodi-0.dtd"
   xmlns:inkscape="http://www.inkscape.org/namespaces/inkscape"
   width="32px"
   height="32px"
   id="svg3005"
   version="1.1"
   inkscape:version="0.48.2 r9819"
   sodipodi:docname="New document 2">
  <defs
     id="defs3007">
    <clipPath
       id="clipPath18">
      <path
         d="m 0,0 4850.54,0 0,6307 L 0,6307 0,0 z"
         inkscape:connector-curvature="0"
         id="path20" />
    </clipPath>
  </defs>
  <sodipodi:namedview
     id="base"
     pagecolor="#ffffff"
     bordercolor="#666666"
     borderopacity="1.0"
     inkscape:pageopacity="0.0"
     inkscape:pageshadow="2"
     inkscape:zoom="7.9180417"
     inkscape:cx="4.7681828"
     inkscape:cy="27.422407"
     inkscape:current-layer="layer1"
     showgrid="true"
     inkscape:grid-bbox="true"
     inkscape:document-units="px"
     inkscape:window-width="1366"
     inkscape:window-height="706"
     inkscape:window-x="-8"
     inkscape:window-y="-8"
     inkscape:window-maximized="1" />
  <metadata
     id="metadata3010">
    <rdf:RDF>
      <cc:Work
         rdf:about="">
        <dc:format>image/svg+xml</dc:format>
        <dc:type
           rdf:resource="http://purl.org/dc/dcmitype/StillImage" />
        <dc:title></dc:title>
      </cc:Work>
    </rdf:RDF>
  </metadata>
  <g
     id="layer1"
     inkscape:label="Layer 1"
     inkscape:groupmode="layer">
    <g
       transform="matrix(0.05073728,0,0,-0.05073728,3.6948397,32.000001)"
       id="g10"
       style="fill:#ffffff;fill-opacity:1">
      <g
         transform="scale(0.1,0.1)"
         id="g12"
         style="fill:#ffffff;fill-opacity:1">
        <g
           id="g14"
           style="fill:#ffffff;fill-opacity:1">
          <g
             clip-path="url(#clipPath18)"
             id="g16"
             style="fill:#ffffff;fill-opacity:1">
            <path
               d="m 3973.24,3189.76 c 0,-497.91 -246.73,-938.34 -626.2,-1214.24 l -56.72,187.65 c 297.05,243.45 486.66,608.39 486.66,1017.12 0,733.39 -607.86,1327.82 -1357.85,1327.82 -749.84,0 -1357.8,-594.43 -1357.8,-1327.82 0,-595.94 401.59,-1100.26 954.61,-1268.26 15.26,-4.63 31.71,-6.55 47.29,-10.59 l 33.97,-188.6 c -22.56,4.71 -45.8,7.3 -67.88,12.97 -663.24,171.01 -1152.269,761.64 -1152.269,1463.95 0,836.11 693.119,1513.88 1548.099,1513.88 855.02,0 1548.09,-677.77 1548.09,-1513.88 l 0,0 z m -2375.6,-210.49 c 0,-297.97 160.03,-556.86 397.9,-702.26 l 41.09,-227.97 c -360.03,154.73 -612.09,510.78 -612.09,925.6 0,556.92 453.84,1008.37 1013.84,1008.37 559.94,0 1013.93,-451.45 1013.93,-1008.37 0,-235.8 -82.31,-451.87 -218.85,-623.25 l -72.33,239.4 c 62.65,115.63 98.45,247.7 98.45,388.48 0,456.45 -372.01,826.35 -830.98,826.35 -458.89,0 -830.96,-369.9 -830.96,-826.35 l 0,0 z M 4850.54,0 l 0,3844.05 L 2425.15,6307.45 0,3844.05 0,0 1835.03,0 c -36.27,240.469 -77.84,533.672 -82.9,645.301 -9.33,201.969 400.59,690.229 532.04,643.759 130.53,-46.59 84.1,-818.798 84.1,-818.798 0,0 93.62,-129.821 189.91,-149.063 96.47,-19.539 152.86,159.16 152.86,159.16 0,0 -91.86,591.221 -179.77,1198.781 l 1.17,1.36 -68.75,475.94 0.09,0 c -57.44,418.77 -99.4,765.49 -88.77,818.3 28.96,144.06 214,166.52 214,166.52 110.48,-1.87 152.24,-91.12 152.24,-91.12 0,0 79.91,-370.09 162.49,-729.17 l 1.09,-12.02 48.88,-200.15 0.29,-1.15 c -0.08,-0.11 -0.29,-0.2 -0.48,-0.29 11.01,-46.57 21.75,-91.04 32.2,-133.37 0.81,0.38 1.49,0.96 2.26,1.34 l 45.56,-177.63 c -0.83,-0.38 -1.49,-0.86 -2.32,-1.15 13.33,-49.17 25.26,-91.13 33.94,-114.9 70.52,-194.76 884.25,-580.44 999.34,-754.22 C 4163.43,778.281 4168.96,170.031 4168.43,0 l 682.11,0 0,0"
               inkscape:connector-curvature="0"
               id="path22"
               style="fill:#ffffff;fill-opacity:1;fill-rule:nonzero;stroke:none" />
          </g>
        </g>
      </g>
    </g>
  </g>
</svg>
