<?xml version="1.0" encoding="UTF-8" standalone="no"?>
<!-- Created with Inkscape (http://www.inkscape.org/) -->

<svg
   xmlns:dc="http://purl.org/dc/elements/1.1/"
   xmlns:cc="http://creativecommons.org/ns#"
   xmlns:rdf="http://www.w3.org/1999/02/22-rdf-syntax-ns#"
   xmlns:svg="http://www.w3.org/2000/svg"
   xmlns="http://www.w3.org/2000/svg"
   xmlns:sodipodi="http://sodipodi.sourceforge.net/DTD/sodipodi-0.dtd"
   xmlns:inkscape="http://www.inkscape.org/namespaces/inkscape"
   width="64px"
   height="64px"
   id="svg3824"
   version="1.1"
   inkscape:version="0.48.2 r9819"
   sodipodi:docname="games.svg">
  <defs
     id="defs3826" />
  <sodipodi:namedview
     id="base"
     pagecolor="#ffffff"
     bordercolor="#666666"
     borderopacity="1.0"
     inkscape:pageopacity="0.0"
     inkscape:pageshadow="2"
     inkscape:zoom="5.5"
     inkscape:cx="34.858725"
     inkscape:cy="31.784549"
     inkscape:current-layer="layer1"
     showgrid="false"
     inkscape:document-units="px"
     inkscape:grid-bbox="true"
     inkscape:window-width="1366"
     inkscape:window-height="706"
     inkscape:window-x="-8"
     inkscape:window-y="-8"
     inkscape:window-maximized="1">
    <inkscape:grid
       type="xygrid"
       id="grid3832" />
  </sodipodi:namedview>
  <metadata
     id="metadata3829">
    <rdf:RDF>
      <cc:Work
         rdf:about="">
        <dc:format>image/svg+xml</dc:format>
        <dc:type
           rdf:resource="http://purl.org/dc/dcmitype/StillImage" />
      </cc:Work>
    </rdf:RDF>
  </metadata>
  <g
     id="layer1"
     inkscape:label="Layer 1"
     inkscape:groupmode="layer">
    <path
       style="fill:#000000;fill-opacity:1;fill-rule:nonzero;stroke:#000000;stroke-width:2.66666651;stroke-linecap:round;stroke-linejoin:round;stroke-miterlimit:4;stroke-opacity:1;stroke-dasharray:none"
       d="M 49.5 15 C 45.991925 15 42.909842 16.797873 41.125 19.53125 L 18.6875 25.90625 C 17.417637 25.322481 15.989196 25 14.5 25 C 8.9771526 25 4.5 29.477153 4.5 35 C 4.5 40.522847 8.9771526 45 14.5 45 C 18.073999 45 21.200512 43.132421 22.96875 40.3125 L 45.15625 34 C 46.467778 34.631959 47.946699 35 49.5 35 C 55.022847 35 59.5 30.522847 59.5 25 C 59.5 19.477153 55.022847 15 49.5 15 z M 47.625 15.875 C 48.747373 15.825358 49.873917 16.342359 50.59375 17.3125 C 51.745483 18.864726 51.427226 21.035767 49.875 22.1875 C 48.322774 23.339233 46.120483 23.020976 44.96875 21.46875 C 43.817017 19.916524 44.135274 17.714233 45.6875 16.5625 C 46.269585 16.1306 46.951576 15.904785 47.625 15.875 z M 55.1875 19.75 C 56.309873 19.700358 57.436417 20.186109 58.15625 21.15625 C 59.307983 22.708476 58.989726 24.879517 57.4375 26.03125 C 55.885274 27.182983 53.682983 26.864726 52.53125 25.3125 C 51.379517 23.760274 51.697774 21.557983 53.25 20.40625 C 53.832085 19.97435 54.514076 19.779785 55.1875 19.75 z M 43.78125 23.4375 C 44.903623 23.387858 46.030167 23.904859 46.75 24.875 C 47.901733 26.427226 47.583476 28.598267 46.03125 29.75 C 44.479024 30.901733 42.276733 30.583476 41.125 29.03125 C 39.973267 27.479024 40.291524 25.276733 41.84375 24.125 C 42.425835 23.6931 43.107826 23.467285 43.78125 23.4375 z M 51.34375 27.3125 C 52.466123 27.262858 53.592667 27.748609 54.3125 28.71875 C 55.464233 30.270976 55.145976 32.442017 53.59375 33.59375 C 52.041524 34.745483 49.839233 34.427226 48.6875 32.875 C 47.535767 31.322774 47.854024 29.151733 49.40625 28 C 49.988335 27.5681 50.670326 27.342285 51.34375 27.3125 z M 12.15625 28.09375 C 13.232132 28.055964 14.362241 29.008436 14.8125 30.4375 L 15.4375 32.40625 L 17.40625 31.78125 C 19.035485 31.254198 20.674962 31.770783 21.0625 32.96875 C 21.450038 34.166717 20.441735 35.566698 18.8125 36.09375 L 16.8125 36.75 L 17.4375 38.75 C 17.952082 40.383216 17.388394 41.996631 16.1875 42.375 C 14.986606 42.753369 13.608332 41.758216 13.09375 40.125 L 12.46875 38.15625 L 10.5 38.78125 C 8.8707654 39.308302 7.2625384 38.760467 6.875 37.5625 C 6.4874616 36.364533 7.4645154 34.995802 9.09375 34.46875 L 11.09375 33.8125 L 10.46875 31.78125 C 9.9541681 30.148034 10.517856 28.534619 11.71875 28.15625 C 11.868862 28.108954 12.002553 28.099148 12.15625 28.09375 z "
       id="path2989" />
    <path
       style="fill:none;stroke:#000000;stroke-width:3;stroke-linecap:round;stroke-linejoin:miter;stroke-miterlimit:4;stroke-opacity:1;stroke-dasharray:none"
       d="M 31.454546,24.181818 C 29.628064,21.568543 30.447498,15.904601 29.14195,14.036663 27.362235,11.490302 20.686716,12.259412 19.310487,11.027439 15.163944,7.315535 15.818182,2.7272728 15.818182,2.7272728"
       id="path3985"
       inkscape:connector-curvature="0"
       sodipodi:nodetypes="cssc" />
  </g>
</svg>
