<?xml version="1.0" encoding="UTF-8" standalone="no"?>
<!-- Created with Inkscape (http://www.inkscape.org/) -->

<svg
   xmlns:dc="http://purl.org/dc/elements/1.1/"
   xmlns:cc="http://creativecommons.org/ns#"
   xmlns:rdf="http://www.w3.org/1999/02/22-rdf-syntax-ns#"
   xmlns:svg="http://www.w3.org/2000/svg"
   xmlns="http://www.w3.org/2000/svg"
   xmlns:sodipodi="http://sodipodi.sourceforge.net/DTD/sodipodi-0.dtd"
   xmlns:inkscape="http://www.inkscape.org/namespaces/inkscape"
   width="64px"
   height="64px"
   id="svg3824"
   version="1.1"
   inkscape:version="0.48.2 r9819"
   sodipodi:docname="socket.svg">
  <defs
     id="defs3826" />
  <sodipodi:namedview
     id="base"
     pagecolor="#ffffff"
     bordercolor="#666666"
     borderopacity="1.0"
     inkscape:pageopacity="0.0"
     inkscape:pageshadow="2"
     inkscape:zoom="5.5"
     inkscape:cx="6.4545455"
     inkscape:cy="38.248085"
     inkscape:current-layer="layer1"
     showgrid="false"
     inkscape:document-units="px"
     inkscape:grid-bbox="true"
     inkscape:window-width="1366"
     inkscape:window-height="706"
     inkscape:window-x="-8"
     inkscape:window-y="-8"
     inkscape:window-maximized="1">
    <inkscape:grid
       type="xygrid"
       id="grid3832" />
  </sodipodi:namedview>
  <metadata
     id="metadata3829">
    <rdf:RDF>
      <cc:Work
         rdf:about="">
        <dc:format>image/svg+xml</dc:format>
        <dc:type
           rdf:resource="http://purl.org/dc/dcmitype/StillImage" />
      </cc:Work>
    </rdf:RDF>
  </metadata>
  <g
     id="layer1"
     inkscape:label="Layer 1"
     inkscape:groupmode="layer">
    <g
       id="g3009"
       transform="matrix(1.0435941,0,0,1.0435941,69.000154,-11.830952)">
      <path
         style="fill:none;stroke:#000000;stroke-width:4.91874981;stroke-linecap:butt;stroke-linejoin:miter;stroke-miterlimit:4;stroke-opacity:1;stroke-dasharray:none"
         id="path124"
         inkscape:connector-curvature="0"
         d="m -35.454295,69.6375 c 14.872,0 26.9287495,-12.37375 26.9287495,-27.6375 0,-15.26375 -12.0567495,-27.6375 -26.9287495,-27.6375 -14.873,0 -26.92925,12.37375 -26.92925,27.6375 0,15.26375 12.05625,27.6375 26.92925,27.6375 z" />
      <path
         style="fill:#000000;fill-opacity:1;fill-rule:nonzero;stroke:none"
         id="path126"
         inkscape:connector-curvature="0"
         d="m -46.15842,46.355 c 2.2505,0 4.07475,-1.82375 4.07475,-4.075 0,-2.25 -1.82425,-4.07375 -4.07475,-4.07375 -2.2505,0 -4.07475,1.82375 -4.07475,4.07375 0,2.25125 1.82425,4.075 4.07475,4.075" />
      <path
         style="fill:#000000;fill-opacity:1;fill-rule:nonzero;stroke:none"
         id="path128"
         inkscape:connector-curvature="0"
         d="m -23.717545,46.355 c 2.2505,0 4.07475,-1.82375 4.07475,-4.075 0,-2.25 -1.82425,-4.07375 -4.07475,-4.07375 -2.25038,0 -4.07462,1.82375 -4.07462,4.07375 0,2.25125 1.82425,4.075 4.07462,4.075" />
      <path
         style="fill:#000000;fill-opacity:1;fill-rule:nonzero;stroke:none"
         id="path130"
         inkscape:connector-curvature="0"
         d="m -54.00217,40.58875 0,-17.2325 -6.860875,7.40875 0,9.82375 6.860875,0 z m -6.860875,3.06 0,11.91875 6.860875,4.99375 0,-16.9125 -6.860875,0" />
      <path
         style="fill:#000000;fill-opacity:1;fill-rule:nonzero;stroke:none"
         id="path132"
         inkscape:connector-curvature="0"
         d="m -16.958175,40.55125 0,-17.23375 6.86125,7.40875 0,9.825 -6.86125,0 z m 6.86125,3.06 0,11.91875 -6.86125,4.9925 0,-16.91125 6.86125,0" />
    </g>
  </g>
</svg>
