<?xml version="1.0" encoding="UTF-8" standalone="no"?>
<!-- Created with Inkscape (http://www.inkscape.org/) -->

<svg
   xmlns:dc="http://purl.org/dc/elements/1.1/"
   xmlns:cc="http://creativecommons.org/ns#"
   xmlns:rdf="http://www.w3.org/1999/02/22-rdf-syntax-ns#"
   xmlns:svg="http://www.w3.org/2000/svg"
   xmlns="http://www.w3.org/2000/svg"
   xmlns:sodipodi="http://sodipodi.sourceforge.net/DTD/sodipodi-0.dtd"
   xmlns:inkscape="http://www.inkscape.org/namespaces/inkscape"
   width="16px"
   height="16px"
   id="svg3022"
   version="1.1"
   inkscape:version="0.48.2 r9819"
   sodipodi:docname="comfort-black.svg">
  <defs
     id="defs3024" />
  <sodipodi:namedview
     id="base"
     pagecolor="#ffffff"
     bordercolor="#666666"
     borderopacity="1.0"
     inkscape:pageopacity="0.0"
     inkscape:pageshadow="2"
     inkscape:zoom="22.197802"
     inkscape:cx="6.3233382"
     inkscape:cy="4.4612292"
     inkscape:current-layer="layer1"
     showgrid="true"
     inkscape:grid-bbox="true"
     inkscape:document-units="px"
     inkscape:window-width="1366"
     inkscape:window-height="706"
     inkscape:window-x="-8"
     inkscape:window-y="-8"
     inkscape:window-maximized="1" />
  <metadata
     id="metadata3027">
    <rdf:RDF>
      <cc:Work
         rdf:about="">
        <dc:format>image/svg+xml</dc:format>
        <dc:type
           rdf:resource="http://purl.org/dc/dcmitype/StillImage" />
        <dc:title />
      </cc:Work>
    </rdf:RDF>
  </metadata>
  <g
     id="layer1"
     inkscape:label="Layer 1"
     inkscape:groupmode="layer">
    <g
       id="g3881"
       transform="matrix(1.1033578,0,0,1.1033578,-0.81334496,-0.67305388)">
      <path
         d="m 2.937944,6.5407873 0,8.0285427 10.124112,0 0,-7.9989723 L 8.0001943,1.4306702 2.937944,6.5407873 z"
         inkscape:connector-curvature="0"
         id="path212"
         style="fill:none;stroke:#000000;stroke-width:1;stroke-linecap:butt;stroke-linejoin:miter;stroke-miterlimit:4;stroke-opacity:1;stroke-dasharray:none" />
      <g
         transform="matrix(1.2935061,0,0,1.2935061,-2.5938598,-1.9966284)"
         id="g3876">
        <path
           style="fill:#000000;fill-opacity:1;fill-rule:nonzero;stroke:none"
           id="path214"
           inkscape:connector-curvature="0"
           d="M 11.02077,8.3348782 C 10.869396,7.8838175 10.789888,7.3238807 10.291681,7.2536379 9.8594523,7.1927587 8.9179794,7.2166804 8.6825986,7.3543194 8.2555381,7.6038491 8.3055107,9.0889861 8.3055107,9.0889861 c 0,0 -0.098256,1.0497979 0.301694,0.9805589 0.4688212,-0.080944 0.023199,-1.5985292 0.2514024,-1.9107765 0.1355522,0.00587 0.072632,0.192667 0.075442,0.251537 0.053833,1.1377685 0,2.2564715 0,3.4695005 0,0.316595 -0.05573,1.011499 0.1257016,1.131413 0.1001467,0.06623 0.3101226,0.08396 0.390149,-0.02525 0.1682828,-0.22946 0.1317724,-1.00598 0.1317724,-1.432957 0,-0.598737 -0.05096,-1.476105 0.056308,-1.483464 0.1072717,-0.0073 0.072316,0.227453 0.07546,0.326965 0.011753,0.369945 0,0.752435 0,1.181586 0,0.559937 -0.1743697,1.538488 0.3770869,1.483298 0.350496,-0.03495 0.301694,-0.543213 0.301694,-1.005646 0,-1.291802 0,-2.6384594 0,-3.896979" />
        <path
           style="fill:#000000;fill-opacity:1;fill-rule:nonzero;stroke:none"
           id="path216"
           inkscape:connector-curvature="0"
           d="M 8.3575241,8.3679927 C 8.5043153,7.916932 8.5813985,7.3571623 9.0643189,7.2869195 c 0.419033,-0.060879 1.3316901,-0.036957 1.5598961,0.1005144 0.414065,0.2496968 0.36558,1.7348336 0.36558,1.7348336 0,0 0.09526,1.0496305 -0.292477,0.9805585 -0.454507,-0.08112 -0.02255,-1.5985286 -0.243744,-1.9107759 -0.131454,0.00569 -0.07043,0.192667 -0.0731,0.2513699 -0.0522,1.1379357 0,2.256471 0,3.4695 0,0.316763 0.05395,1.011499 -0.121855,1.131414 -0.09707,0.06623 -0.3006396,0.08396 -0.3782576,-0.02509 -0.1631317,-0.22946 -0.127709,-1.006147 -0.127709,-1.433124 0,-0.598737 0.049388,-1.475938 -0.054619,-1.483297 -0.1040096,-0.0073 -0.070094,0.227454 -0.073102,0.326798 -0.011437,0.369945 0,0.752435 0,1.181586 0,0.559937 0.1690018,1.538488 -0.3655977,1.483465 -0.3397753,-0.03495 -0.2924785,-0.54338 -0.2924785,-1.005645 0,-1.29197 0,-2.6384602 0,-3.8969799" />
        <path
           style="fill:#000000;fill-opacity:1;fill-rule:nonzero;stroke:none"
           id="path218"
           inkscape:connector-curvature="0"
           d="m 9.5986673,7.2886987 c 0.3370995,0 0.6103777,-0.274951 0.6103777,-0.6141246 0,-0.3391727 -0.2732782,-0.6141237 -0.6103777,-0.6141237 -0.3371834,0 -0.6104451,0.274951 -0.6104451,0.6141237 0,0.3391736 0.2732617,0.6141246 0.6104451,0.6141246" />
      </g>
      <path
         sodipodi:nodetypes="cc"
         d="m 3.249041,9.5626722 2.6886829,0"
         inkscape:connector-curvature="0"
         id="path238-7-4"
         style="fill:none;stroke:#000000;stroke-width:1.67119873;stroke-linecap:butt;stroke-linejoin:miter;stroke-miterlimit:4;stroke-opacity:1;stroke-dasharray:none" />
      <path
         d="m 5.4834119,7.6271257 0,3.8710933 L 7.589218,9.5897119 5.4834119,7.6271257"
         inkscape:connector-curvature="0"
         id="path244-4-8"
         style="fill:#000000;fill-opacity:1;fill-rule:nonzero;stroke:none" />
    </g>
  </g>
</svg>
