<?xml version="1.0" encoding="UTF-8" standalone="no"?>
<!-- Created with Inkscape (http://www.inkscape.org/) -->

<svg
   xmlns:dc="http://purl.org/dc/elements/1.1/"
   xmlns:cc="http://creativecommons.org/ns#"
   xmlns:rdf="http://www.w3.org/1999/02/22-rdf-syntax-ns#"
   xmlns:svg="http://www.w3.org/2000/svg"
   xmlns="http://www.w3.org/2000/svg"
   xmlns:sodipodi="http://sodipodi.sourceforge.net/DTD/sodipodi-0.dtd"
   xmlns:inkscape="http://www.inkscape.org/namespaces/inkscape"
   width="16px"
   height="16px"
   id="svg3022"
   version="1.1"
   inkscape:version="0.48.2 r9819"
   sodipodi:docname="comfort-white.svg">
  <defs
     id="defs3024" />
  <sodipodi:namedview
     id="base"
     pagecolor="#ffffff"
     bordercolor="#666666"
     borderopacity="1.0"
     inkscape:pageopacity="0.0"
     inkscape:pageshadow="2"
     inkscape:zoom="22.197802"
     inkscape:cx="-0.19543272"
     inkscape:cy="6.3330594"
     inkscape:current-layer="layer1"
     showgrid="true"
     inkscape:grid-bbox="true"
     inkscape:document-units="px"
     inkscape:window-width="1366"
     inkscape:window-height="706"
     inkscape:window-x="-8"
     inkscape:window-y="-8"
     inkscape:window-maximized="1" />
  <metadata
     id="metadata3027">
    <rdf:RDF>
      <cc:Work
         rdf:about="">
        <dc:format>image/svg+xml</dc:format>
        <dc:type
           rdf:resource="http://purl.org/dc/dcmitype/StillImage" />
        <dc:title />
      </cc:Work>
    </rdf:RDF>
  </metadata>
  <g
     id="layer1"
     inkscape:label="Layer 1"
     inkscape:groupmode="layer">
    <path
       style="fill:none;stroke:#ffffff;stroke-width:1.10335779000000000;stroke-linecap:butt;stroke-linejoin:miter;stroke-miterlimit:4;stroke-opacity:1;stroke-dasharray:none"
       id="path212"
       inkscape:connector-curvature="0"
       d="m 2.4282585,6.5251147 0,8.8583553 11.1705175,0 0,-8.8257286 L 8.0137318,0.88682713 2.4282585,6.5251147 z" />
    <path
       style="fill:#ffffff;fill-opacity:1;fill-rule:nonzero;stroke:none"
       id="path214"
       inkscape:connector-curvature="0"
       d="M 12.053543,9.0008287 C 11.837502,8.3570748 11.724028,7.557933 11.012987,7.4576825 10.39611,7.3707957 9.0524398,7.4049368 8.7165043,7.6013751 8.1070036,7.9575039 8.1783245,10.077091 8.1783245,10.077091 c 0,0 -0.140231,1.498272 0.4305776,1.399454 0.6691017,-0.115523 0.03311,-2.2814208 0.3588016,-2.7270601 0.1934601,0.00838 0.1036603,0.2749743 0.1076708,0.3589936 0.07683,1.6238235 0,3.2204365 0,4.9516715 0,0.451844 -0.079538,1.443611 0.1794013,1.614752 0.1429294,0.09452 0.442607,0.119828 0.5568207,-0.03604 0.2401735,-0.327485 0.1880655,-1.435734 0.1880655,-2.045116 0,-0.854517 -0.07273,-2.106697 0.080363,-2.1172 0.153098,-0.01042 0.103209,0.324621 0.107696,0.466645 0.01677,0.527985 0,1.073875 0,1.686359 0,0.799142 -0.2488601,2.19573 0.538179,2.116963 0.500228,-0.04988 0.430577,-0.775273 0.430577,-1.435258 0,-1.843659 0,-3.765609 0,-5.5617681" />
    <path
       style="fill:#ffffff;fill-opacity:1;fill-rule:nonzero;stroke:none"
       id="path216"
       inkscape:connector-curvature="0"
       d="M 8.252558,9.0480897 C 8.4620584,8.4043359 8.5720715,7.6054325 9.2612955,7.505182 9.8593394,7.4182955 11.161884,7.452437 11.487579,7.6486362 c 0.590954,0.3563672 0.521756,2.4759548 0.521756,2.4759548 0,0 0.135955,1.498032 -0.417423,1.399453 -0.648673,-0.115775 -0.03218,-2.2814203 -0.347872,-2.7270596 -0.187611,0.00812 -0.100517,0.2749743 -0.104328,0.3587551 -0.0745,1.6240615 0,3.2204355 0,4.9516705 0,0.452084 0.077,1.443611 -0.173911,1.614754 -0.138539,0.09452 -0.429073,0.119828 -0.53985,-0.03581 -0.232821,-0.327486 -0.182266,-1.435973 -0.182266,-2.045355 0,-0.854517 0.07049,-2.106459 -0.07795,-2.116962 -0.148443,-0.01042 -0.100038,0.324623 -0.104331,0.466407 -0.01632,0.527985 0,1.073875 0,1.686359 0,0.799142 0.241199,2.19573 -0.5217813,2.117201 -0.4849274,-0.04988 -0.4174254,-0.775512 -0.4174254,-1.435256 0,-1.8439 0,-3.765611 0,-5.5617699" />
    <path
       style="fill:#ffffff;fill-opacity:1;fill-rule:nonzero;stroke:none"
       id="path218"
       inkscape:connector-curvature="0"
       d="m 10.023918,7.5077213 c 0.481108,0 0.871131,-0.3924101 0.871131,-0.8764786 0,-0.4840673 -0.390023,-0.8764774 -0.871131,-0.8764774 -0.4812286,0 -0.8712277,0.3924101 -0.8712277,0.8764774 0,0.4840685 0.3899991,0.8764786 0.8712277,0.8764786" />
    <path
       style="fill:none;stroke:#ffffff;stroke-width:1.84393012999999990;stroke-linecap:butt;stroke-linejoin:miter;stroke-miterlimit:4;stroke-opacity:1;stroke-dasharray:none"
       id="path238-7-4"
       inkscape:connector-curvature="0"
       d="m 2.7715098,9.859335 2.9665792,0"
       sodipodi:nodetypes="cc" />
    <path
       style="fill:#ffffff;fill-opacity:1;fill-rule:nonzero;stroke:none"
       id="path244-4-8"
       inkscape:connector-curvature="0"
       d="m 5.2368203,7.7237346 0,4.2712014 L 7.5602779,9.8891694 5.2368203,7.7237346" />
  </g>
</svg>
