<?xml version="1.0" encoding="UTF-8" standalone="no"?>
<!-- Created with Inkscape (http://www.inkscape.org/) -->

<svg
   xmlns:osb="http://www.openswatchbook.org/uri/2009/osb"
   xmlns:dc="http://purl.org/dc/elements/1.1/"
   xmlns:cc="http://creativecommons.org/ns#"
   xmlns:rdf="http://www.w3.org/1999/02/22-rdf-syntax-ns#"
   xmlns:svg="http://www.w3.org/2000/svg"
   xmlns="http://www.w3.org/2000/svg"
   xmlns:sodipodi="http://sodipodi.sourceforge.net/DTD/sodipodi-0.dtd"
   xmlns:inkscape="http://www.inkscape.org/namespaces/inkscape"
   width="100"
   height="100"
   id="svg3824"
   version="1.1"
   inkscape:version="0.48.2 r9819"
   sodipodi:docname="albums.svg">
  <defs
     id="defs3826">
    <linearGradient
       id="linearGradient3756"
       osb:paint="solid">
      <stop
         style="stop-color:#ffffff;stop-opacity:1;"
         offset="0"
         id="stop3758" />
    </linearGradient>
  </defs>
  <sodipodi:namedview
     id="base"
     pagecolor="#ffffff"
     bordercolor="#666666"
     borderopacity="1.0"
     inkscape:pageopacity="0.0"
     inkscape:pageshadow="2"
     inkscape:zoom="3.8890873"
     inkscape:cx="41.118107"
     inkscape:cy="55.652179"
     inkscape:current-layer="layer1"
     showgrid="true"
     inkscape:document-units="px"
     inkscape:grid-bbox="true"
     inkscape:window-width="1366"
     inkscape:window-height="706"
     inkscape:window-x="-8"
     inkscape:window-y="-8"
     inkscape:window-maximized="1">
    <inkscape:grid
       type="xygrid"
       id="grid3832"
       empspacing="5"
       visible="true"
       enabled="true"
       snapvisiblegridlinesonly="true" />
  </sodipodi:namedview>
  <metadata
     id="metadata3829">
    <rdf:RDF>
      <cc:Work
         rdf:about="">
        <dc:format>image/svg+xml</dc:format>
        <dc:type
           rdf:resource="http://purl.org/dc/dcmitype/StillImage" />
      </cc:Work>
    </rdf:RDF>
  </metadata>
  <g
     id="layer1"
     inkscape:label="Layer 1"
     inkscape:groupmode="layer"
     transform="translate(0,36)">
    <g
       id="g2997"
       transform="matrix(1.2088383,0,0,1.2088383,101.21079,-21.605782)"
       style="fill:#ffffff">
      <path
         d="m -11.168011,29.45517 c 0,-17.805 -13.96625,-32.2399995 -31.19625,-32.2399995 -17.22875,0 -31.195,14.4349995 -31.195,32.2399995 0,17.805 13.96625,32.23875 31.195,32.23875 17.23,0 31.19625,-14.43375 31.19625,-32.23875 z m -20.92625,-0.26625 c 0,5.935 -4.655,10.745 -10.3975,10.745 -5.7425,0 -10.3975,-4.81 -10.3975,-10.745 0,-5.93375 4.655,-10.745 10.3975,-10.745 5.7425,0 10.3975,4.81125 10.3975,10.745"
         inkscape:connector-curvature="0"
         id="path140"
         style="fill:#ffffff;fill-opacity:1;fill-rule:nonzero;stroke:none" />
      <path
         d="m -34.428011,29.18892 c 0,-4.6025 -3.61,-8.3325 -8.06375,-8.3325 -4.45375,0 -8.06375,3.73 -8.06375,8.3325 0,4.6025 3.61,8.33375 8.06375,8.33375 4.45375,0 8.06375,-3.73125 8.06375,-8.33375 z m -2.91125,0 c 0,2.94125 -2.30625,5.325 -5.1525,5.325 -2.845,0 -5.1525,-2.38375 -5.1525,-5.325 0,-2.94 2.3075,-5.325 5.1525,-5.325 2.84625,0 5.1525,2.385 5.1525,5.325"
         inkscape:connector-curvature="0"
         id="path142"
         style="fill:#ffffff;fill-opacity:1;fill-rule:nonzero;stroke:none" />
    </g>
    <rect
       style="fill:none;stroke:#ffffff;stroke-width:0.95895302000000004;stroke-opacity:1"
       id="rect2986"
       width="90"
       height="90.739723"
       x="-59"
       y="5"
       rx="0.90909094"
       ry="0.90909094"
       transform="matrix(0,-1,1,0,0,0)" />
  </g>
</svg>
