<?xml version="1.0" encoding="UTF-8" standalone="no"?>
<!-- Created with Inkscape (http://www.inkscape.org/) -->

<svg
   xmlns:osb="http://www.openswatchbook.org/uri/2009/osb"
   xmlns:dc="http://purl.org/dc/elements/1.1/"
   xmlns:cc="http://creativecommons.org/ns#"
   xmlns:rdf="http://www.w3.org/1999/02/22-rdf-syntax-ns#"
   xmlns:svg="http://www.w3.org/2000/svg"
   xmlns="http://www.w3.org/2000/svg"
   xmlns:sodipodi="http://sodipodi.sourceforge.net/DTD/sodipodi-0.dtd"
   xmlns:inkscape="http://www.inkscape.org/namespaces/inkscape"
   width="100"
   height="100"
   id="svg3824"
   version="1.1"
   inkscape:version="0.48.2 r9819"
   sodipodi:docname="movies.svg">
  <defs
     id="defs3826">
    <linearGradient
       id="linearGradient3756"
       osb:paint="solid">
      <stop
         style="stop-color:#ffffff;stop-opacity:1;"
         offset="0"
         id="stop3758" />
    </linearGradient>
  </defs>
  <sodipodi:namedview
     id="base"
     pagecolor="#ffffff"
     bordercolor="#666666"
     borderopacity="1.0"
     inkscape:pageopacity="0.0"
     inkscape:pageshadow="2"
     inkscape:zoom="3.8890873"
     inkscape:cx="0.2344786"
     inkscape:cy="55.652179"
     inkscape:current-layer="layer1"
     showgrid="true"
     inkscape:document-units="px"
     inkscape:grid-bbox="true"
     inkscape:window-width="1366"
     inkscape:window-height="706"
     inkscape:window-x="-8"
     inkscape:window-y="-8"
     inkscape:window-maximized="1">
    <inkscape:grid
       type="xygrid"
       id="grid3832"
       empspacing="5"
       visible="true"
       enabled="true"
       snapvisiblegridlinesonly="true" />
  </sodipodi:namedview>
  <metadata
     id="metadata3829">
    <rdf:RDF>
      <cc:Work
         rdf:about="">
        <dc:format>image/svg+xml</dc:format>
        <dc:type
           rdf:resource="http://purl.org/dc/dcmitype/StillImage" />
      </cc:Work>
    </rdf:RDF>
  </metadata>
  <g
     id="layer1"
     inkscape:label="Layer 1"
     inkscape:groupmode="layer"
     transform="translate(0,36)">
    <rect
       style="fill:none;stroke:#ffffff;stroke-width:0.95895302000000004;stroke-opacity:1"
       id="rect2986"
       width="90"
       height="90.739723"
       x="-59"
       y="5"
       rx="0.90909094"
       ry="0.90909094"
       transform="matrix(0,-1,1,0,0,0)" />
    <g
       id="g3005"
       transform="matrix(1.9826086,0,0,1.9826086,177.5995,-25.787659)"
       style="fill:#ffffff">
      <g
         id="g3010"
         style="fill:#ffffff">
        <path
           d="m -47.260468,12.985539 c 0,0 -1.565691,0 -1.565691,1.565692 l 0,7.039351 c 0,0 0,1.565691 1.565691,1.565691 l 0.419606,0 c 0,0 1.565692,0 1.565692,-1.565691 l 0,-7.039351 c 0,0 0,-1.565692 -1.565692,-1.565692 l -0.419606,0"
           inkscape:connector-curvature="0"
           id="path530"
           style="fill:#ffffff;fill-opacity:1;fill-rule:nonzero;stroke:none" />
        <path
           d="m -49.072756,23.156273 2.243655,0 0,-10.17089 -2.243655,0 0,10.17089 z"
           inkscape:connector-curvature="0"
           id="path532"
           style="fill:#ffffff;fill-opacity:1;fill-rule:nonzero;stroke:none" />
        <path
           d="m -48.271122,22.083774 0,-7.766613 -3.66137,0 0,7.766613 3.66137,0 z m -4.549117,3.439825 0,-12.870769 c 0,0 -0.0038,-0.734309 -0.337407,-1.535161 -0.868176,3.929887 -4.20858,6.860862 -8.206573,6.860862 -4.657151,0 -8.432033,-3.973726 -8.432033,-8.8766895 l -0.542512,0 c 0.05324,0.3272291 0.09864,0.6568076 0.09864,0.9989115 0,3.370151 -2.682812,6.102283 -5.991902,6.102283 -3.309089,0 -5.991119,-2.732132 -5.991119,-6.102283 0,-0.07516 0.01879,-0.1440439 0.02111,-0.2184147 -0.677162,0.5119817 -1.241594,1.3566717 -1.241594,2.7704917 l 0,12.870769 c 0,0 0,3.550206 3.550206,3.550206 l 2.871479,0 c -0.02423,0.150307 -0.06025,0.287304 -0.06025,0.462662 l 0,0.628625 c 0,0 0,2.348538 2.348536,2.348538 l 2.755618,0 -4.676721,5.986422 3.323964,0.190232 4.924883,-6.176654 2.67655,0 4.924883,6.176654 3.323964,-0.190232 -4.676722,-5.986422 1.773147,0 c 0,0 2.34932,0 2.34932,-2.348538 l -6.27e-4,-0.628625 c 0,0 -0.0062,-0.194928 -0.05868,-0.462662 l 1.723043,0 c 0,0 3.550989,0 3.550989,-3.550206 z M -54.151861,9.1323717 c 0,-4.24459 -3.269163,-7.6859801 -7.301602,-7.6859801 -4.033223,0 -7.302386,3.4413901 -7.302386,7.6859801 0,4.2453743 3.269163,7.6867643 7.302386,7.6867643 4.032439,0 7.301602,-3.44139 7.301602,-7.6867643 z M -71.08873,10.073353 c 0,-2.8652161 -2.279647,-5.1871369 -5.092413,-5.1871369 -2.812765,0 -5.093195,2.3219208 -5.093195,5.1871369 0,2.864433 2.28043,5.187137 5.093195,5.187137 2.812766,0 5.092413,-2.322704 5.092413,-5.187137"
           inkscape:connector-curvature="0"
           id="path534"
           style="fill:#ffffff;fill-opacity:1;fill-rule:nonzero;stroke:none" />
      </g>
    </g>
  </g>
</svg>
