<?xml version="1.0" encoding="UTF-8" standalone="no"?>
<!-- Created with Inkscape (http://www.inkscape.org/) -->

<svg
   xmlns:dc="http://purl.org/dc/elements/1.1/"
   xmlns:cc="http://creativecommons.org/ns#"
   xmlns:rdf="http://www.w3.org/1999/02/22-rdf-syntax-ns#"
   xmlns:svg="http://www.w3.org/2000/svg"
   xmlns="http://www.w3.org/2000/svg"
   xmlns:sodipodi="http://sodipodi.sourceforge.net/DTD/sodipodi-0.dtd"
   xmlns:inkscape="http://www.inkscape.org/namespaces/inkscape"
   width="64px"
   height="64px"
   id="svg3824"
   version="1.1"
   inkscape:version="0.48.2 r9819"
   sodipodi:docname="movies.svg">
  <defs
     id="defs3826" />
  <sodipodi:namedview
     id="base"
     pagecolor="#ffffff"
     bordercolor="#666666"
     borderopacity="1.0"
     inkscape:pageopacity="0.0"
     inkscape:pageshadow="2"
     inkscape:zoom="5.5"
     inkscape:cx="1.0091793"
     inkscape:cy="31.185167"
     inkscape:current-layer="layer1"
     showgrid="false"
     inkscape:document-units="px"
     inkscape:grid-bbox="true"
     inkscape:window-width="1366"
     inkscape:window-height="706"
     inkscape:window-x="-8"
     inkscape:window-y="-8"
     inkscape:window-maximized="1">
    <inkscape:grid
       type="xygrid"
       id="grid3832" />
  </sodipodi:namedview>
  <metadata
     id="metadata3829">
    <rdf:RDF>
      <cc:Work
         rdf:about="">
        <dc:format>image/svg+xml</dc:format>
        <dc:type
           rdf:resource="http://purl.org/dc/dcmitype/StillImage" />
      </cc:Work>
    </rdf:RDF>
  </metadata>
  <g
     id="layer1"
     inkscape:label="Layer 1"
     inkscape:groupmode="layer">
    <g
       id="g3010"
       transform="matrix(0.59336932,0,0,0.59336932,55.626888,8.5888833)">
      <path
         style="fill:#000000;fill-opacity:1;fill-rule:nonzero;stroke:none"
         id="path530"
         inkscape:connector-curvature="0"
         d="m -12.515657,28.14517 c 0,0 -2.5,0 -2.5,2.5 l 0,11.24 c 0,0 0,2.5 2.5,2.5 l 0.67,0 c 0,0 2.5000002,0 2.5000002,-2.5 l 0,-11.24 c 0,0 0,-2.5 -2.5000002,-2.5 l -0.67,0" />
      <path
         style="fill:#000000;fill-opacity:1;fill-rule:nonzero;stroke:none"
         id="path532"
         inkscape:connector-curvature="0"
         d="m -15.409407,44.38517 3.58253,0 0,-16.24025 -3.58253,0 0,16.24025 z" />
      <path
         style="fill:#000000;fill-opacity:1;fill-rule:nonzero;stroke:none"
         id="path534"
         inkscape:connector-curvature="0"
         d="m -14.129407,42.67267 0,-12.40125 -5.84625,0 0,12.40125 5.84625,0 z m -7.26375,5.4925 0,-20.55125 c 0,0 -0.006,-1.1725 -0.53875,-2.45125 -1.38625,6.275 -6.72,10.955 -13.10375,10.955 -7.43625,0 -13.46375,-6.345 -13.46375,-14.17375 l -0.86625,0 c 0.085,0.5225 0.1575,1.04875 0.1575,1.595 0,5.38125 -4.28375,9.74375 -9.5675,9.74375 -5.28375,0 -9.56625,-4.3625 -9.56625,-9.74375 0,-0.12 0.03,-0.23 0.0337,-0.34875 -1.08125,0.8175 -1.9825,2.16625 -1.9825,4.42375 l 0,20.55125 c 0,0 0,5.66875 5.66875,5.66875 l 4.585,0 c -0.0387,0.24 -0.0962,0.45875 -0.0962,0.73875 l 0,1.00375 c 0,0 0,3.75 3.75,3.75 l 4.4,0 -7.4675,9.55875 5.3075,0.30375 7.86375,-9.8625 4.27375,0 7.86375,9.8625 5.3075,-0.30375 -7.4675,-9.55875 2.83125,0 c 0,0 3.75125,0 3.75125,-3.75 l -0.001,-1.00375 c 0,0 -0.01,-0.31125 -0.0937,-0.73875 l 2.75125,0 c 0,0 5.67,0 5.67,-5.66875 z m -2.12625,-26.1725 c 0,-6.7775 -5.22,-12.2724995 -11.65875,-12.2724995 -6.44,0 -11.66,5.4949995 -11.66,12.2724995 0,6.77875 5.22,12.27375 11.66,12.27375 6.43875,0 11.65875,-5.495 11.65875,-12.27375 z m -27.04375,1.5025 c 0,-4.575 -3.64,-8.2825 -8.13125,-8.2825 -4.49125,0 -8.1325,3.7075 -8.1325,8.2825 0,4.57375 3.64125,8.2825 8.1325,8.2825 4.49125,0 8.13125,-3.70875 8.13125,-8.2825" />
    </g>
  </g>
</svg>
