<?xml version="1.0" encoding="UTF-8" standalone="no"?>
<!-- Created with Inkscape (http://www.inkscape.org/) -->

<svg
   xmlns:dc="http://purl.org/dc/elements/1.1/"
   xmlns:cc="http://creativecommons.org/ns#"
   xmlns:rdf="http://www.w3.org/1999/02/22-rdf-syntax-ns#"
   xmlns:svg="http://www.w3.org/2000/svg"
   xmlns="http://www.w3.org/2000/svg"
   xmlns:sodipodi="http://sodipodi.sourceforge.net/DTD/sodipodi-0.dtd"
   xmlns:inkscape="http://www.inkscape.org/namespaces/inkscape"
   width="64px"
   height="64px"
   id="svg3824"
   version="1.1"
   inkscape:version="0.48.2 r9819"
   sodipodi:docname="dinner.svg">
  <defs
     id="defs3826" />
  <sodipodi:namedview
     id="base"
     pagecolor="#ffffff"
     bordercolor="#666666"
     borderopacity="1.0"
     inkscape:pageopacity="0.0"
     inkscape:pageshadow="2"
     inkscape:zoom="5.6568542"
     inkscape:cx="-19.29862"
     inkscape:cy="39.936986"
     inkscape:current-layer="layer1"
     showgrid="false"
     inkscape:document-units="px"
     inkscape:grid-bbox="true"
     inkscape:window-width="1366"
     inkscape:window-height="706"
     inkscape:window-x="-8"
     inkscape:window-y="-8"
     inkscape:window-maximized="1"
     inkscape:snap-grids="true">
    <inkscape:grid
       type="xygrid"
       id="grid3832" />
  </sodipodi:namedview>
  <metadata
     id="metadata3829">
    <rdf:RDF>
      <cc:Work
         rdf:about="">
        <dc:format>image/svg+xml</dc:format>
        <dc:type
           rdf:resource="http://purl.org/dc/dcmitype/StillImage" />
      </cc:Work>
    </rdf:RDF>
  </metadata>
  <g
     id="layer1"
     inkscape:label="Layer 1"
     inkscape:groupmode="layer">
    <g
       id="g2993"
       transform="translate(40.644861,-5.4976254)">
      <path
         style="fill:#000000;fill-opacity:1;fill-rule:nonzero;stroke:none"
         id="path422"
         inkscape:connector-curvature="0"
         d="m 16.354825,32.430595 c 0.02026,-0.897181 -0.943488,-1.333472 -0.943488,-1.333472 l -24.3309901,-0.1013 0,-5.79e-4 -23.3440909,0 c -0.701104,0.04775 -1.163442,0.326314 -1.29006,0.530351 -0.06946,1.931111 2.295049,4.11763 9.107118,4.370867 6.812069,0.253237 15.5154554,-1.889871 15.5154554,-1.889871 l 0.00237,-0.541926 c 0.6367099,-0.143984 2.6235334,-0.557121 6.0357178,-0.931187 4.2044542,-0.461615 15.2079538,3.366602 17.7403218,1.452131 0,0 1.486862,-0.657691 1.507845,-1.554874" />
      <path
         style="fill:#000000;fill-opacity:1;fill-rule:nonzero;stroke:none"
         id="path424"
         inkscape:connector-curvature="0"
         d="m 15.815069,41.113723 c 0,-1.049124 -2.99543,-1.899999 -8.4754735,-1.899999 -2.9628705,0 -6.037165,0.249619 -8.24394271,0.643945 -4.03587139,0.508644 -8.42410329,0.66131 -11.63803879,0.689528 -1.281379,-0.22719 -4.205179,-0.866794 -6.153655,-2.15179 -1.928217,-1.271972 -14.588609,-0.429055 -14.877299,-0.01377 0.0217,0.01377 0.04266,0.02674 0.03831,0.05712 -0.02026,0.154836 0.437738,0.175095 0.685187,0.197524 0.356702,0.03329 8.191125,0.19029 8.576769,0.235148 0.332825,0.03838 1.184423,0.07091 1.146799,0.412415 -0.03762,0.342232 -0.297372,0.277113 -0.464508,0.293754 -0.396496,0.03976 -2.343525,-0.04051 -2.868811,-0.04051 -0.488385,0 -5.255748,0.07597 -5.690592,0.131682 -0.206207,0.02674 -1.411615,-0.03109 -1.467326,0.198973 0,0.01237 0,0.0246 -5.79e-4,0.03762 0.05065,0.231531 0.815423,0.329207 0.957235,0.329207 0.404455,-0.0012 8.523227,0.08828 9.154148,0.107088 0.130236,0.0035 0.400837,0.141812 0.42182,0.446419 0.02026,0.303884 -0.273495,0.468127 -0.404455,0.471744 -0.630921,0.01881 -8.785147,0.108525 -9.188878,0.107088 -0.146877,0 -0.966641,0.102737 -0.966641,0.352361 0,0.24962 1.266184,0.185949 1.476732,0.213442 0.435568,0.05569 5.202931,0.131684 5.691316,0.131684 0.525286,0 2.471591,-0.08031 2.868087,-0.04127 0.16786,0.01736 0.427609,-0.04775 0.465232,0.294479 0.03762,0.341507 -0.813974,0.374067 -1.146801,0.412413 -0.385642,0.04486 -8.220065,0.201867 -8.576767,0.234425 -0.247449,0.02315 -0.706169,0.04341 -0.685187,0.198249 0.004,0.03259 -0.01667,0.0485 -0.04127,0.0615 0.994135,0.125171 12.779775,1.569345 14.979317,0.168584 2.29722,-1.462985 5.362832,-1.676427 6.285337,-1.703199 3.4186972,0.06077 8.0999603,0.259749 12.39196192,0.8393 0.02674125,0.0035 0.04775375,0.0035 0.07379999,0.0072 2.08160639,0.296649 4.68198639,0.477533 7.20277779,0.477533 5.4800443,0 8.4754733,-0.850153 8.4754733,-1.9" />
    </g>
  </g>
</svg>
