<?xml version="1.0" encoding="UTF-8" standalone="no"?>
<!-- Created with Inkscape (http://www.inkscape.org/) -->

<svg
   xmlns:dc="http://purl.org/dc/elements/1.1/"
   xmlns:cc="http://creativecommons.org/ns#"
   xmlns:rdf="http://www.w3.org/1999/02/22-rdf-syntax-ns#"
   xmlns:svg="http://www.w3.org/2000/svg"
   xmlns="http://www.w3.org/2000/svg"
   xmlns:sodipodi="http://sodipodi.sourceforge.net/DTD/sodipodi-0.dtd"
   xmlns:inkscape="http://www.inkscape.org/namespaces/inkscape"
   width="64px"
   height="64px"
   id="svg3824"
   version="1.1"
   inkscape:version="0.48.2 r9819"
   sodipodi:docname="holidays.svg">
  <defs
     id="defs3826" />
  <sodipodi:namedview
     id="base"
     pagecolor="#ffffff"
     bordercolor="#666666"
     borderopacity="1.0"
     inkscape:pageopacity="0.0"
     inkscape:pageshadow="2"
     inkscape:zoom="5.6568542"
     inkscape:cx="-19.29862"
     inkscape:cy="39.936986"
     inkscape:current-layer="layer1"
     showgrid="false"
     inkscape:document-units="px"
     inkscape:grid-bbox="true"
     inkscape:window-width="1366"
     inkscape:window-height="706"
     inkscape:window-x="-8"
     inkscape:window-y="-8"
     inkscape:window-maximized="1"
     inkscape:snap-grids="true">
    <inkscape:grid
       type="xygrid"
       id="grid3832" />
  </sodipodi:namedview>
  <metadata
     id="metadata3829">
    <rdf:RDF>
      <cc:Work
         rdf:about="">
        <dc:format>image/svg+xml</dc:format>
        <dc:type
           rdf:resource="http://purl.org/dc/dcmitype/StillImage" />
      </cc:Work>
    </rdf:RDF>
  </metadata>
  <g
     id="layer1"
     inkscape:label="Layer 1"
     inkscape:groupmode="layer">
    <path
       d="m 44.620943,17.348413 c -6.644698,-1.595388 -13.405627,2.431433 -15.952702,9.148702 0.821885,-0.944017 2.078017,-1.424286 3.337099,-1.12161 1.757641,0.421857 2.83972,2.192478 2.532915,4.028591 l 0.05723,0.01416 c 0.55992,-1.775931 2.328181,-2.86214 4.085822,-2.440283 1.758231,0.422447 2.83972,2.193069 2.533505,4.029181 l 0.05664,0.01359 c 0.239544,-0.758159 0.706832,-1.37885 1.291532,-1.821948 l -2.925271,12.671653 c -0.53042,-0.03068 -1.066739,-0.05251 -1.614859,-0.05251 -4.956087,0 -9.251953,1.300382 -11.405491,3.203756 C 24.7783,44.14907 22.087853,43.59505 19.08057,43.59505 14.176403,43.59505 10.100021,45.062406 9.2256259,47 L 50.77652,47 C 50.063199,44.506616 46.037558,42.502351 40.817146,41.965441 L 43.9088,28.573975 c 0.466699,-0.100302 0.956407,-0.110922 1.448476,0.0071 1.581818,0.379377 2.622006,1.851453 2.593096,3.480471 0.734563,-1.400684 2.27803,-2.198969 3.821497,-1.828442 1.723421,0.413597 2.794879,2.123447 2.548255,3.920619 l 0.135113,0.03243 c 1.560577,-7.669568 -2.742959,-15.13556 -9.834294,-16.83774"
       inkscape:connector-curvature="0"
       id="path432"
       style="fill:#000000;fill-opacity:1;fill-rule:nonzero;stroke:none" />
  </g>
</svg>
