<?xml version="1.0" encoding="UTF-8" standalone="no"?>
<!-- Created with Inkscape (http://www.inkscape.org/) -->

<svg
   xmlns:dc="http://purl.org/dc/elements/1.1/"
   xmlns:cc="http://creativecommons.org/ns#"
   xmlns:rdf="http://www.w3.org/1999/02/22-rdf-syntax-ns#"
   xmlns:svg="http://www.w3.org/2000/svg"
   xmlns="http://www.w3.org/2000/svg"
   xmlns:sodipodi="http://sodipodi.sourceforge.net/DTD/sodipodi-0.dtd"
   xmlns:inkscape="http://www.inkscape.org/namespaces/inkscape"
   width="64px"
   height="64px"
   id="svg3824"
   version="1.1"
   inkscape:version="0.48.2 r9819"
   sodipodi:docname="partyKids.svg">
  <defs
     id="defs3826" />
  <sodipodi:namedview
     id="base"
     pagecolor="#ffffff"
     bordercolor="#666666"
     borderopacity="1.0"
     inkscape:pageopacity="0.0"
     inkscape:pageshadow="2"
     inkscape:zoom="4"
     inkscape:cx="-40.423435"
     inkscape:cy="39.936986"
     inkscape:current-layer="layer1"
     showgrid="false"
     inkscape:document-units="px"
     inkscape:grid-bbox="true"
     inkscape:window-width="1366"
     inkscape:window-height="706"
     inkscape:window-x="-8"
     inkscape:window-y="-8"
     inkscape:window-maximized="1"
     inkscape:snap-grids="true">
    <inkscape:grid
       type="xygrid"
       id="grid3832" />
  </sodipodi:namedview>
  <metadata
     id="metadata3829">
    <rdf:RDF>
      <cc:Work
         rdf:about="">
        <dc:format>image/svg+xml</dc:format>
        <dc:type
           rdf:resource="http://purl.org/dc/dcmitype/StillImage" />
      </cc:Work>
    </rdf:RDF>
  </metadata>
  <g
     id="layer1"
     inkscape:label="Layer 1"
     inkscape:groupmode="layer">
    <g
       id="g3003"
       transform="matrix(0.40359585,0,0,0.40359585,48.552352,29.143387)">
      <path
         style="fill:#000000;fill-opacity:1;fill-rule:nonzero;stroke:none"
         id="path438"
         inkscape:connector-curvature="0"
         d="m -37.700347,-13.675232 c -1.49375,-2.23625 -3.57375,-3.9275 -6.13,-4.73375 -7.07625,-2.23125 -15.0625,3.09625 -17.8375,11.8974996 -2.63125,8.3425 0.37,16.8025004 6.71375,19.5637504 l -2.31625,2.315 4.7675,1.50375 -0.56625,-3.20375 c 4.905,1.14375 10.11875,-1.2125 13.67625,-5.7312504 -1.95125,-3.29125 -2.8675,-7.55249998 -2.275,-12.05375 0.49,-3.72125 1.93875,-7.0112496 3.9675,-9.5574996" />
      <path
         style="fill:#000000;fill-opacity:1;fill-rule:nonzero;stroke:none"
         id="path440"
         inkscape:connector-curvature="0"
         d="m -13.479097,-0.77023238 c 1.205,-9.15124962 -3.78125,-17.35374962 -11.1375,-18.32249962 -7.35625,-0.9675 -14.2975,5.665 -15.50125,14.8149996 -1.1425,8.6725 3.2825,16.4825004 10.01,18.1000004 l -1.88,2.6825 4.95625,0.6525 -1.11375,-3.05625 c 7.03875,0.38375 13.5075,-6.0687504 14.66625,-14.87125038" />
      <path
         style="fill:#000000;fill-opacity:1;fill-rule:nonzero;stroke:none"
         id="path442"
         inkscape:connector-curvature="0"
         d="m 18.578403,9.2647676 c 4.035,-6.98875 2.75125,-15.285 -2.8675,-18.5287496 -5.61875,-3.24375 -13.4449999,-0.2075 -17.4799999,6.7812496 -3.825,6.62375 -2.86375,14.4137504 2.02999999,17.9712504 l -2.41624999,1.53875 3.785,2.185 0.12375,-2.84125 c 5.5575,2.665 12.9424999,-0.3825 16.8249999,-7.1062504" />
      <path
         style="fill:none;stroke:#000000;stroke-width:1.25;stroke-linecap:butt;stroke-linejoin:miter;stroke-miterlimit:4;stroke-opacity:1;stroke-dasharray:none"
         id="path444"
         inkscape:connector-curvature="0"
         d="m -53.830347,14.999768 c -0.66125,0.4675 -1.10875,0.70875 -1.5375,1.4625 -0.6975,1.2275 -0.81,2.62 -1.5025,3.86125 -0.99875,1.79375 -2.06125,2.725 -4.1325,3.3825 -2.835,0.9025 -5.83375,0.44 -8.64625,-0.22875 -4.48625,-1.0675 -9.1075,-2.8975 -13.74375,-1.3875 -1.44875,0.4725 -2.64625,1.39625 -3.99125,2.08375 -1.37125,0.70125 -2.8,1.2725 -4.3,1.6675 -3.2825,0.865 -7.30875,0.78875 -10.646253,0.20125" />
      <path
         style="fill:none;stroke:#000000;stroke-width:1.25;stroke-linecap:butt;stroke-linejoin:miter;stroke-miterlimit:4;stroke-opacity:1;stroke-dasharray:none"
         id="path446"
         inkscape:connector-curvature="0"
         d="m -29.726597,16.498518 c -1.11875,1.09625 -1.98375,2.435 -2.44125,3.93875 -0.49875,1.635 -0.22,3.51875 -1.47375,4.85125 -1.49375,1.58625 -3.73,1.6 -5.79125,1.3925 -1.49125,-0.15 -2.80125,-0.8575 -4.26375,-1.085 -1.34625,-0.20875 -2.71375,-0.30125 -4.06875,-0.43625 -1.6675,-0.1675 -3.49625,-0.14125 -5.03,0.5825 -1.0325,0.4875 -2.1225,1.33375 -2.9875,2.05875 -1.23375,1.0325 -2.38625,1.7775 -3.8975,2.43125 -2.8175,1.21875 -5.455,2.16875 -8.605,1.81625 -1.78625,-0.2 -3.40125,-1.17125 -5.09125,-1.705 -2.20875,-0.6975 -4.59375,-1.48375 -6.92625,-1.56" />
      <path
         style="fill:none;stroke:#000000;stroke-width:0.9375;stroke-linecap:butt;stroke-linejoin:miter;stroke-miterlimit:4;stroke-opacity:1;stroke-dasharray:none"
         id="path448"
         inkscape:connector-curvature="0"
         d="m 1.3496531,17.959768 c -0.23875,-0.62375 -3.21625,1.23625 -3.5575,1.3675 -3.015,1.15 -6.45125,1.5225 -8.7025001,4.10125 -0.5825,0.66625 -0.81875,1.05375 -1.1125,1.8675 -0.2575,0.715 -0.7425,1.5575 -1.25875,2.125 -1.4775,1.625 -4.265,1.7675 -6.30625,1.76 -0.9475,-0.004 -1.895,-0.002 -2.8425,0 -1.14625,0.004 -2.28125,-0.2325 -3.41875,-0.18375 -1.165,0.05 -2.2225,0.365 -3.33875,0.63625 -1.02,0.24625 -2.04625,0.41 -3.03875,0.77875 -1.505,0.5575 -2.83,1.2725 -4.4,1.7025 -1.10125,0.3025 -2.20375,0.54625 -3.3275,0.75875" />
    </g>
  </g>
</svg>
