<?xml version="1.0" encoding="UTF-8" standalone="no"?>
<!-- Created with Inkscape (http://www.inkscape.org/) -->

<svg
   xmlns:dc="http://purl.org/dc/elements/1.1/"
   xmlns:cc="http://creativecommons.org/ns#"
   xmlns:rdf="http://www.w3.org/1999/02/22-rdf-syntax-ns#"
   xmlns:svg="http://www.w3.org/2000/svg"
   xmlns="http://www.w3.org/2000/svg"
   xmlns:sodipodi="http://sodipodi.sourceforge.net/DTD/sodipodi-0.dtd"
   xmlns:inkscape="http://www.inkscape.org/namespaces/inkscape"
   width="64px"
   height="64px"
   id="svg3824"
   version="1.1"
   inkscape:version="0.48.2 r9819"
   sodipodi:docname="party.svg">
  <defs
     id="defs3826" />
  <sodipodi:namedview
     id="base"
     pagecolor="#ffffff"
     bordercolor="#666666"
     borderopacity="1.0"
     inkscape:pageopacity="0.0"
     inkscape:pageshadow="2"
     inkscape:zoom="5.6568542"
     inkscape:cx="-40.423435"
     inkscape:cy="39.936986"
     inkscape:current-layer="g3028"
     showgrid="false"
     inkscape:document-units="px"
     inkscape:grid-bbox="true"
     inkscape:window-width="1366"
     inkscape:window-height="706"
     inkscape:window-x="-8"
     inkscape:window-y="-8"
     inkscape:window-maximized="1"
     inkscape:snap-grids="true">
    <inkscape:grid
       type="xygrid"
       id="grid3832" />
  </sodipodi:namedview>
  <metadata
     id="metadata3829">
    <rdf:RDF>
      <cc:Work
         rdf:about="">
        <dc:format>image/svg+xml</dc:format>
        <dc:type
           rdf:resource="http://purl.org/dc/dcmitype/StillImage" />
      </cc:Work>
    </rdf:RDF>
  </metadata>
  <g
     id="layer1"
     inkscape:label="Layer 1"
     inkscape:groupmode="layer">
    <g
       id="g3028"
       transform="matrix(0.64577582,0,0,0.64577582,-26.675171,11.315899)">
      <g
         id="g3036"
         transform="translate(127.45275,32.023011)">
        <path
           d="m -56.769651,-31.931914 c -1.1925,2.6725 -2.2925,5.5775 -3.2375,8.67 -4.68,15.3062497 -3.9225,29.1049997 1.6925,30.8212497 5.61375,1.71625 13.95875,-9.3 18.6375,-24.6049997 0.94625,-3.0925 1.65875,-6.11625 2.165,-8.99875 l -19.2575,-5.8875"
           inkscape:connector-curvature="0"
           id="path500"
           style="fill:#000000;fill-opacity:1;fill-rule:nonzero;stroke:none" />
        <path
           d="m -59.217151,5.3143357 -6.36375,20.8150003 2.905,0.8875 6.36375,-20.8150003 -2.905,-0.8875"
           inkscape:connector-curvature="0"
           id="path502"
           style="fill:#000000;fill-opacity:1;fill-rule:nonzero;stroke:none" />
        <path
           d="m -54.042151,31.608086 c -1.71125,-3.09 -5.0975,-5.7925 -9.4475,-7.1225 -4.35125,-1.33 -8.66875,-0.9825 -11.81625,0.6225 l 21.26375,6.5"
           inkscape:connector-curvature="0"
           id="path504"
           style="fill:#000000;fill-opacity:1;fill-rule:nonzero;stroke:none" />
        <path
           d="m -34.774651,-25.985664 c 0.45625,2.89 1.11625,5.925 2.0075,9.03375 4.41125,15.3849997 12.5625,26.5449997 18.205,24.9274997 5.6437498,-1.61875 6.6424998,-15.4025 2.23125,-30.7874997 -0.89125,-3.10875 -1.94125,-6.03125 -3.08625,-8.725 l -19.3575,5.55125"
           inkscape:connector-curvature="0"
           id="path506"
           style="fill:#000000;fill-opacity:1;fill-rule:nonzero;stroke:none" />
        <path
           d="m -16.540901,6.5830857 6,20.9225003 2.9199998,-0.83625 -5.9999998,-20.9237503 -2.92,0.8375"
           inkscape:connector-curvature="0"
           id="path508"
           style="fill:#000000;fill-opacity:1;fill-rule:nonzero;stroke:none" />
        <path
           d="m 2.1203488,25.816836 c -3.11875005,-1.65875 -7.43,-2.08125 -11.80375,-0.8275 -4.3724998,1.25375 -7.8049998,3.89625 -9.5699998,6.95625 l 21.3737498,-6.12875"
           inkscape:connector-curvature="0"
           id="path510"
           style="fill:#000000;fill-opacity:1;fill-rule:nonzero;stroke:none" />
      </g>
    </g>
  </g>
</svg>
