<?xml version="1.0" encoding="UTF-8" standalone="no"?>
<!-- Created with Inkscape (http://www.inkscape.org/) -->

<svg
   xmlns:dc="http://purl.org/dc/elements/1.1/"
   xmlns:cc="http://creativecommons.org/ns#"
   xmlns:rdf="http://www.w3.org/1999/02/22-rdf-syntax-ns#"
   xmlns:svg="http://www.w3.org/2000/svg"
   xmlns="http://www.w3.org/2000/svg"
   xmlns:sodipodi="http://sodipodi.sourceforge.net/DTD/sodipodi-0.dtd"
   xmlns:inkscape="http://www.inkscape.org/namespaces/inkscape"
   width="64px"
   height="64px"
   id="svg3824"
   version="1.1"
   inkscape:version="0.48.2 r9819"
   sodipodi:docname="dinner.svg">
  <defs
     id="defs3826" />
  <sodipodi:namedview
     id="base"
     pagecolor="#ffffff"
     bordercolor="#666666"
     borderopacity="1.0"
     inkscape:pageopacity="0.0"
     inkscape:pageshadow="2"
     inkscape:zoom="5.6568542"
     inkscape:cx="1.8261957"
     inkscape:cy="39.936986"
     inkscape:current-layer="layer1"
     showgrid="false"
     inkscape:document-units="px"
     inkscape:grid-bbox="true"
     inkscape:window-width="1366"
     inkscape:window-height="706"
     inkscape:window-x="-8"
     inkscape:window-y="-8"
     inkscape:window-maximized="1"
     inkscape:snap-grids="true">
    <inkscape:grid
       type="xygrid"
       id="grid3832" />
  </sodipodi:namedview>
  <metadata
     id="metadata3829">
    <rdf:RDF>
      <cc:Work
         rdf:about="">
        <dc:format>image/svg+xml</dc:format>
        <dc:type
           rdf:resource="http://purl.org/dc/dcmitype/StillImage" />
      </cc:Work>
    </rdf:RDF>
  </metadata>
  <g
     id="layer1"
     inkscape:label="Layer 1"
     inkscape:groupmode="layer">
    <path
       d="m 57.085092,45.819085 0,-1.059244 c 0,0 0,-1.180119 -1.180119,-1.180119 l -2.421472,0 c 0.04453,-0.516899 0.08509,-1.034593 0.08509,-1.561034 0,-10.097814 -8.252088,-18.405567 -18.860437,-19.498211 0.50497,-0.586084 0.822266,-1.33996 0.822266,-2.17495 C 35.53042,18.498211 34.032209,17 32.184098,17 c -1.847316,0 -3.345527,1.498211 -3.345527,3.345527 0,0.852485 0.328429,1.621471 0.85328,2.212326 -10.478727,1.204771 -18.594831,9.448906 -18.594831,19.460835 0,0.526441 0.04135,1.044135 0.08588,1.561034 l -3.087077,0 c 0,0 -1.180915,0 -1.180915,1.180119 l 0,1.059244 c 0,0 0,1.180915 1.180915,1.180915 l 47.809145,0 c 6.36e-4,0 1.180119,-6.36e-4 1.180119,-1.180915 z M 30.533203,24.281908 c -8.509741,1.387674 -15.099801,8.737177 -15.674751,17.810736 l -1.848112,0 c 0.701392,-9.425845 8.137575,-16.966203 17.522863,-17.810736"
       inkscape:connector-curvature="0"
       id="path420"
       style="fill:#000000;fill-opacity:1;fill-rule:nonzero;stroke:none" />
  </g>
</svg>
