<?xml version="1.0" encoding="UTF-8" standalone="no"?>
<!-- Created with Inkscape (http://www.inkscape.org/) -->

<svg
   xmlns:dc="http://purl.org/dc/elements/1.1/"
   xmlns:cc="http://creativecommons.org/ns#"
   xmlns:rdf="http://www.w3.org/1999/02/22-rdf-syntax-ns#"
   xmlns:svg="http://www.w3.org/2000/svg"
   xmlns="http://www.w3.org/2000/svg"
   xmlns:sodipodi="http://sodipodi.sourceforge.net/DTD/sodipodi-0.dtd"
   xmlns:inkscape="http://www.inkscape.org/namespaces/inkscape"
   width="64px"
   height="64px"
   id="svg3824"
   version="1.1"
   inkscape:version="0.48.2 r9819"
   sodipodi:docname="study.svg">
  <defs
     id="defs3826" />
  <sodipodi:namedview
     id="base"
     pagecolor="#ffffff"
     bordercolor="#666666"
     borderopacity="1.0"
     inkscape:pageopacity="0.0"
     inkscape:pageshadow="2"
     inkscape:zoom="5.6568542"
     inkscape:cx="-46.875785"
     inkscape:cy="39.936986"
     inkscape:current-layer="layer1"
     showgrid="false"
     inkscape:document-units="px"
     inkscape:grid-bbox="true"
     inkscape:window-width="1366"
     inkscape:window-height="706"
     inkscape:window-x="-8"
     inkscape:window-y="-8"
     inkscape:window-maximized="1"
     inkscape:snap-grids="true">
    <inkscape:grid
       type="xygrid"
       id="grid3832" />
  </sodipodi:namedview>
  <metadata
     id="metadata3829">
    <rdf:RDF>
      <cc:Work
         rdf:about="">
        <dc:format>image/svg+xml</dc:format>
        <dc:type
           rdf:resource="http://purl.org/dc/dcmitype/StillImage" />
      </cc:Work>
    </rdf:RDF>
  </metadata>
  <g
     id="layer1"
     inkscape:label="Layer 1"
     inkscape:groupmode="layer">
    <g
       id="g3777"
       transform="matrix(0.65888089,0,0,0.65888089,72.067327,18.134996)">
      <path
         style="fill:none;stroke:#000000;stroke-width:6.25;stroke-linecap:butt;stroke-linejoin:miter;stroke-miterlimit:4;stroke-opacity:1;stroke-dasharray:none"
         id="path512"
         inkscape:connector-curvature="0"
         d="m -95.629309,0.36451267 0,45.79000033 28.36625,-2.795 c 0,0 2.6175,2.505 6.7075,2.4225 4.09,-0.0825 5.6675,-2.4225 5.6675,-2.4225 l 28.895,2.795 0,-45.79000033" />
      <path
         style="fill:none;stroke:#000000;stroke-width:2.5;stroke-linecap:butt;stroke-linejoin:miter;stroke-miterlimit:4;stroke-opacity:1;stroke-dasharray:none"
         id="path514"
         inkscape:connector-curvature="0"
         d="m -86.893059,-2.1842373 0,38.7262503 c 0,0 7.09375,-3.07125 14.9025,-1.14375 7.8075,1.92875 10.06,9.33875 10.06,9.33875 l 1.0975,-46.9212503 c 0,0 -4.62125,-3.75875 -10.21125,-3.75875 -5.59,0 -15.84875,3.75875 -15.84875,3.75875 z" />
      <path
         style="fill:none;stroke:#000000;stroke-width:2.5;stroke-linecap:butt;stroke-linejoin:miter;stroke-miterlimit:4;stroke-opacity:1;stroke-dasharray:none"
         id="path516"
         inkscape:connector-curvature="0"
         d="m -59.748059,-2.1492373 -0.25875,46.7362503 c 0,0 0.6175,-6.86 10.4525,-9.08875 9.83375,-2.22875 15.08625,1.145 15.08625,1.145 l 0,-38.7912503 c 0,0 -10.2675,-3.765 -15.8625,-3.765 -5.595,0 -9.4175,3.76375 -9.4175,3.76375 z" />
      <path
         style="fill:none;stroke:#000000;stroke-width:2.5;stroke-linecap:butt;stroke-linejoin:miter;stroke-miterlimit:4;stroke-opacity:1;stroke-dasharray:none"
         id="path518"
         inkscape:connector-curvature="0"
         d="m -95.756809,5.2570127 8.45875,-7.40625" />
      <path
         style="fill:none;stroke:#000000;stroke-width:2.5;stroke-linecap:butt;stroke-linejoin:miter;stroke-miterlimit:4;stroke-opacity:1;stroke-dasharray:none"
         id="path520"
         inkscape:connector-curvature="0"
         d="m -95.273059,45.623263 8.625,-9.68125" />
      <path
         style="fill:none;stroke:#000000;stroke-width:2.5;stroke-linecap:butt;stroke-linejoin:miter;stroke-miterlimit:4;stroke-opacity:1;stroke-dasharray:none"
         id="path522"
         inkscape:connector-curvature="0"
         d="m -27.279309,45.570763 -7.13375,-9.54" />
      <path
         style="fill:none;stroke:#000000;stroke-width:2.5;stroke-linecap:butt;stroke-linejoin:miter;stroke-miterlimit:4;stroke-opacity:1;stroke-dasharray:none"
         id="path524"
         inkscape:connector-curvature="0"
         d="m -25.779309,7.1432627 -8.4275,-9.38" />
      <path
         style="fill:#000000;fill-opacity:1;fill-rule:nonzero;stroke:none"
         id="path526"
         inkscape:connector-curvature="0"
         d="m -97.054309,2.0845127 4.78222,0 0,-1.67871003 -4.78222,0 0,1.67871003 z" />
      <path
         style="fill:#000000;fill-opacity:1;fill-rule:nonzero;stroke:none"
         id="path528"
         inkscape:connector-curvature="0"
         d="m -29.624309,3.6795127 5.45459,0 0,-3.27393003 -5.45459,0 0,3.27393003 z" />
    </g>
  </g>
</svg>
