<?xml version="1.0" encoding="UTF-8" standalone="no"?>
<!-- Created with Inkscape (http://www.inkscape.org/) -->

<svg
   xmlns:dc="http://purl.org/dc/elements/1.1/"
   xmlns:cc="http://creativecommons.org/ns#"
   xmlns:rdf="http://www.w3.org/1999/02/22-rdf-syntax-ns#"
   xmlns:svg="http://www.w3.org/2000/svg"
   xmlns="http://www.w3.org/2000/svg"
   xmlns:sodipodi="http://sodipodi.sourceforge.net/DTD/sodipodi-0.dtd"
   xmlns:inkscape="http://www.inkscape.org/namespaces/inkscape"
   width="200"
   height="200"
   id="svg3384"
   version="1.1"
   inkscape:version="0.48.2 r9819"
   sodipodi:docname="New document 7">
  <defs
     id="defs3386" />
  <sodipodi:namedview
     id="base"
     pagecolor="#ffffff"
     bordercolor="#666666"
     borderopacity="1.0"
     inkscape:pageopacity="0.0"
     inkscape:pageshadow="2"
     inkscape:zoom="0.94221278"
     inkscape:cx="248.1709"
     inkscape:cy="123.48606"
     inkscape:document-units="px"
     inkscape:current-layer="layer1"
     showgrid="false"
     inkscape:window-width="1600"
     inkscape:window-height="838"
     inkscape:window-x="1358"
     inkscape:window-y="-8"
     inkscape:window-maximized="1" />
  <metadata
     id="metadata3389">
    <rdf:RDF>
      <cc:Work
         rdf:about="">
        <dc:format>image/svg+xml</dc:format>
        <dc:type
           rdf:resource="http://purl.org/dc/dcmitype/StillImage" />
        <dc:title></dc:title>
      </cc:Work>
    </rdf:RDF>
  </metadata>
  <g
     inkscape:label="Layer 1"
     inkscape:groupmode="layer"
     id="layer1"
     transform="translate(0,-852.36218)">
    <g
       id="g3401"
       transform="translate(2.936035,-1.826815)">
      <path
         style="fill:#000000;fill-opacity:1;fill-rule:nonzero;stroke:none"
         id="path452"
         inkscape:connector-curvature="0"
         d="m 162.68419,996.43792 c 0,0 0,-35.41967 -30.63799,-35.41967 l -69.964451,0 c 0,0 -30.638009,0 -30.638009,35.41967 0,0 0,20.46898 0,45.03958 l 19.353299,0 0,-25.0984 c 0,-3.5419 3.067353,-3.5419 3.067353,-3.5419 l 1.933906,0 c 3.063797,0 3.063797,3.5419 3.063797,3.5419 l 0,25.0984 75.996425,0 0,-24.7406 c 0,-3.542 3.06379,-3.542 3.06379,-3.542 l 1.93391,0 c 3.06736,0 3.06736,3.542 3.06736,3.542 l 0,24.7406 19.70747,0 c -0.0258,-19.3462 -0.0567,-34.4739 -0.10616,-34.6546 -0.11668,-0.6411 0.15921,-10.38498 0.15921,-10.38498 z m -34.78208,-71.77086 c 0,-18.04634 -14.12891,-32.67111 -31.555396,-32.67111 -17.426458,0 -31.555362,14.62477 -31.555362,32.67111 0,18.04277 14.128904,32.67109 31.555362,32.67109 17.426486,0 31.555396,-14.62832 31.555396,-32.67109" />
      <path
         inkscape:connector-curvature="0"
         id="path426"
         d="m 95.678041,866.90049 c -22.535055,0 -41.097656,15.85616 -43.752491,36.34658 -2.827707,1.01788 -6.103971,3.39519 -6.103971,8.93697 l 0,1.45385 -1.113874,0 c 0,0 -3.564346,0 -3.564346,3.42089 l 0,15.7359 c 0,0 0,3.42084 3.564346,3.42084 l 1.113874,0 0,2.05256 c 0,0 0.0092,9.70666 10.113863,9.70666 l 1.559416,0 c 0,0 2.243767,-0.0359 4.633653,-1.06906 l 0,-43.53033 c -0.623774,-0.27453 -1.319688,-0.48812 -2.094047,-0.64141 3.48487,-16.51522 18.188356,-28.90622 35.82179,-28.90622 17.690276,0 32.399966,12.47996 35.821796,29.07727 -0.60399,0.15177 -1.24631,0.35129 -1.91584,0.64139 l 0,43.53038 c 1.24575,0.54907 2.7499,0.89798 4.63367,0.89798 l 1.55942,0 c 0,0 10.11385,-0.0106 10.11385,-9.70666 l 0,-1.4539 1.11388,0 c 0,0 3.56434,0 3.56434,-3.42085 l 0,-15.73592 c 0,0 0,-3.42085 -3.56434,-3.42085 l -1.11388,0 0,-2.05252 c 0,0 -0.0119,-7.33586 -6.68317,-9.2363 -2.7957,-20.34588 -21.28071,-36.04725 -43.707939,-36.04725 z m -31.589126,37.67216 0,41.22128 c 1.91228,-1.40083 3.475247,-3.6911 3.475247,-7.52585 l 0,-26.08404 c 0,0 0.0079,-4.76353 -3.475247,-7.61139 z m 63.712895,0.0854 c -1.9105,1.40083 -3.47525,3.68938 -3.47525,7.52587 l 0,26.08402 c 0,0 -0.006,4.76182 3.47525,7.61141 l 0,-41.2213 z"
         style="fill:#000000;fill-opacity:1;fill-rule:nonzero;stroke:none" />
    </g>
  </g>
</svg>
