<?xml version="1.0" encoding="UTF-8" standalone="no"?>
<!-- Created with Inkscape (http://www.inkscape.org/) -->

<svg
   xmlns:osb="http://www.openswatchbook.org/uri/2009/osb"
   xmlns:dc="http://purl.org/dc/elements/1.1/"
   xmlns:cc="http://creativecommons.org/ns#"
   xmlns:rdf="http://www.w3.org/1999/02/22-rdf-syntax-ns#"
   xmlns:svg="http://www.w3.org/2000/svg"
   xmlns="http://www.w3.org/2000/svg"
   xmlns:sodipodi="http://sodipodi.sourceforge.net/DTD/sodipodi-0.dtd"
   xmlns:inkscape="http://www.inkscape.org/namespaces/inkscape"
   width="145"
   height="145"
   id="svg3824"
   version="1.1"
   inkscape:version="0.48.2 r9819"
   sodipodi:docname="defaultAlbum.svg">
  <defs
     id="defs3826">
    <linearGradient
       id="linearGradient3756"
       osb:paint="solid">
      <stop
         style="stop-color:#ffffff;stop-opacity:1;"
         offset="0"
         id="stop3758" />
    </linearGradient>
  </defs>
  <sodipodi:namedview
     id="base"
     pagecolor="#ffffff"
     bordercolor="#666666"
     borderopacity="1.0"
     inkscape:pageopacity="0.0"
     inkscape:pageshadow="2"
     inkscape:zoom="2.75"
     inkscape:cx="-4.3483997"
     inkscape:cy="62.436878"
     inkscape:current-layer="layer1"
     showgrid="true"
     inkscape:document-units="px"
     inkscape:grid-bbox="true"
     inkscape:window-width="1600"
     inkscape:window-height="838"
     inkscape:window-x="1358"
     inkscape:window-y="-8"
     inkscape:window-maximized="1">
    <inkscape:grid
       type="xygrid"
       id="grid3832"
       empspacing="5"
       visible="true"
       enabled="true"
       snapvisiblegridlinesonly="true" />
  </sodipodi:namedview>
  <metadata
     id="metadata3829">
    <rdf:RDF>
      <cc:Work
         rdf:about="">
        <dc:format>image/svg+xml</dc:format>
        <dc:type
           rdf:resource="http://purl.org/dc/dcmitype/StillImage" />
      </cc:Work>
    </rdf:RDF>
  </metadata>
  <g
     id="layer1"
     inkscape:label="Layer 1"
     inkscape:groupmode="layer"
     transform="translate(0,81)">
    <rect
       style="fill:none;stroke:#808080;stroke-width:9.994524;stroke-miterlimit:4;stroke-opacity:1;stroke-dasharray:none"
       id="rect2986"
       width="145"
       height="145"
       x="-64"
       y="3.7747583e-015"
       rx="0.90909094"
       ry="0.90909094"
       transform="matrix(0,-1,1,0,0,0)" />
    <g
       id="g3458"
       transform="matrix(1.8610783,0,0,1.8610783,-74.01042,-1761.1219)"
       style="stroke:none;stroke-opacity:1;fill:#808080;fill-opacity:1">
      <path
         d="m 109.91903,941.7245 c 0,-17.805 -13.966251,-32.24 -31.196251,-32.24 -17.22875,0 -31.195,14.435 -31.195,32.24 0,17.805 13.96625,32.23875 31.195,32.23875 17.23,0 31.196251,-14.43375 31.196251,-32.23875 z m -20.926251,-0.26625 c 0,5.935 -4.655,10.745 -10.3975,10.745 -5.7425,0 -10.3975,-4.81 -10.3975,-10.745 0,-5.93375 4.655,-10.745 10.3975,-10.745 5.7425,0 10.3975,4.81125 10.3975,10.745"
         inkscape:connector-curvature="0"
         id="path140"
         style="fill:#808080;fill-opacity:1;fill-rule:nonzero;stroke:none;stroke-opacity:1" />
      <path
         d="m 86.659029,941.45825 c 0,-4.6025 -3.61,-8.3325 -8.06375,-8.3325 -4.45375,0 -8.06375,3.73 -8.06375,8.3325 0,4.6025 3.61,8.33375 8.06375,8.33375 4.45375,0 8.06375,-3.73125 8.06375,-8.33375 z m -2.91125,0 c 0,2.94125 -2.30625,5.325 -5.1525,5.325 -2.845,0 -5.1525,-2.38375 -5.1525,-5.325 0,-2.94 2.3075,-5.325 5.1525,-5.325 2.84625,0 5.1525,2.385 5.1525,5.325"
         inkscape:connector-curvature="0"
         id="path142"
         style="fill:#808080;fill-opacity:1;fill-rule:nonzero;stroke:none;stroke-opacity:1" />
    </g>
  </g>
</svg>
