<?xml version="1.0" encoding="UTF-8" standalone="no"?>
<!-- Created with Inkscape (http://www.inkscape.org/) -->

<svg
   xmlns:osb="http://www.openswatchbook.org/uri/2009/osb"
   xmlns:dc="http://purl.org/dc/elements/1.1/"
   xmlns:cc="http://creativecommons.org/ns#"
   xmlns:rdf="http://www.w3.org/1999/02/22-rdf-syntax-ns#"
   xmlns:svg="http://www.w3.org/2000/svg"
   xmlns="http://www.w3.org/2000/svg"
   xmlns:sodipodi="http://sodipodi.sourceforge.net/DTD/sodipodi-0.dtd"
   xmlns:inkscape="http://www.inkscape.org/namespaces/inkscape"
   width="100"
   height="145"
   id="svg3824"
   version="1.1"
   inkscape:version="0.48.2 r9819"
   sodipodi:docname="defaultMovie.svg">
  <defs
     id="defs3826">
    <linearGradient
       id="linearGradient3756"
       osb:paint="solid">
      <stop
         style="stop-color:#ffffff;stop-opacity:1;"
         offset="0"
         id="stop3758" />
    </linearGradient>
  </defs>
  <sodipodi:namedview
     id="base"
     pagecolor="#ffffff"
     bordercolor="#666666"
     borderopacity="1.0"
     inkscape:pageopacity="0.0"
     inkscape:pageshadow="2"
     inkscape:zoom="2.75"
     inkscape:cx="-56.363636"
     inkscape:cy="62.436878"
     inkscape:current-layer="layer1"
     showgrid="true"
     inkscape:document-units="px"
     inkscape:grid-bbox="true"
     inkscape:window-width="1366"
     inkscape:window-height="706"
     inkscape:window-x="-8"
     inkscape:window-y="-8"
     inkscape:window-maximized="1">
    <inkscape:grid
       type="xygrid"
       id="grid3832"
       empspacing="5"
       visible="true"
       enabled="true"
       snapvisiblegridlinesonly="true" />
  </sodipodi:namedview>
  <metadata
     id="metadata3829">
    <rdf:RDF>
      <cc:Work
         rdf:about="">
        <dc:format>image/svg+xml</dc:format>
        <dc:type
           rdf:resource="http://purl.org/dc/dcmitype/StillImage" />
      </cc:Work>
    </rdf:RDF>
  </metadata>
  <g
     id="layer1"
     inkscape:label="Layer 1"
     inkscape:groupmode="layer"
     transform="translate(0,81)">
    <rect
       style="fill:none;stroke:#808080;stroke-width:8.30000000000000070;stroke-opacity:1;stroke-miterlimit:4;stroke-dasharray:none"
       id="rect2986"
       width="145"
       height="100"
       x="-64"
       y="3.7747583e-015"
       rx="0.90909094"
       ry="0.90909094"
       transform="matrix(0,-1,1,0,0,0)" />
    <g
       id="g3781"
       transform="translate(-2,0)"
       style="fill:#808080">
      <path
         style="fill:#808080;fill-opacity:1;fill-rule:nonzero;stroke:none"
         id="path530"
         inkscape:connector-curvature="0"
         d="m 81.276372,-18.970104 c 0,0 -2.314473,0 -2.314473,2.314474 l 0,10.4058787 c 0,0 0,2.3144728 2.314473,2.3144728 l 0.62028,0 c 0,0 2.314475,0 2.314475,-2.3144728 l 0,-10.4058787 c 0,0 0,-2.314474 -2.314475,-2.314474 l -0.62028,0" />
      <path
         style="fill:#808080;fill-opacity:1;fill-rule:nonzero;stroke:none"
         id="path532"
         inkscape:connector-curvature="0"
         d="m 78.597369,-3.9352785 3.316669,0 0,-15.0350565 -3.316669,0 0,15.0350565 z" />
      <path
         style="fill:#808080;fill-opacity:1;fill-rule:nonzero;stroke:none"
         id="path534"
         inkscape:connector-curvature="0"
         d="m 79.782379,-5.5206938 0,-11.4809482 -5.412398,0 0,11.4809482 5.412398,0 z m -6.724704,5.08490067 0,-19.02613687 c 0,0 -0.0056,-1.085487 -0.49877,-2.269342 -1.283376,5.809332 -6.221308,10.142028 -12.131317,10.142028 -6.884405,0 -12.464601,-5.874136 -12.464601,-13.121913 l -0.801965,0 c 0.0787,0.483725 0.145814,0.970922 0.145814,1.476636 0,4.981905 -3.965849,9.020662 -8.857491,9.020662 -4.891642,0 -8.85634,-4.038757 -8.85634,-9.020662 0,-0.111105 0.02781,-0.212933 0.03124,-0.322871 -1.001005,0.756834 -1.835375,2.005492 -1.835375,4.095462 l 0,19.02613687 c 0,0 0,5.24807033 5.248071,5.24807033 l 4.244747,0 c -0.03579,0.2221904 -0.08906,0.4247051 -0.08906,0.6839268 l 0,0.9292616 c 0,0 0,3.4717115 3.471703,3.4717115 l 4.073481,0 -6.913336,8.8493919 4.91363,0.28121 7.280176,-9.1306019 3.956594,0 7.280178,9.1306019 4.91363,-0.28121 -6.913336,-8.8493919 2.621144,0 c 0,0 3.472868,0 3.472868,-3.4717115 L 65.348464,5.496204 c 0,0 -0.0092,-0.2881505 -0.08674,-0.6839268 l 2.547078,0 c 0,0 5.249229,0 5.249229,-5.24807033 z M 71.089213,-24.666025 c 0,-6.27454 -4.832621,-11.361754 -10.793549,-11.361754 -5.962088,0 -10.794708,5.087214 -10.794708,11.361754 0,6.275698 4.83262,11.362913 10.794708,11.362913 5.960928,0 10.793549,-5.087215 10.793549,-11.362913 z m -25.036824,1.390999 c 0,-4.235488 -3.369876,-7.667853 -7.527828,-7.667853 -4.157951,0 -7.528983,3.432365 -7.528983,7.667853 0,4.234331 3.371032,7.667854 7.528983,7.667854 4.157952,0 7.527828,-3.433523 7.527828,-7.667854" />
    </g>
  </g>
</svg>
