<?xml version="1.0" encoding="UTF-8" standalone="no"?>
<!-- Created with Inkscape (http://www.inkscape.org/) -->

<svg
   xmlns:dc="http://purl.org/dc/elements/1.1/"
   xmlns:cc="http://creativecommons.org/ns#"
   xmlns:rdf="http://www.w3.org/1999/02/22-rdf-syntax-ns#"
   xmlns:svg="http://www.w3.org/2000/svg"
   xmlns="http://www.w3.org/2000/svg"
   xmlns:sodipodi="http://sodipodi.sourceforge.net/DTD/sodipodi-0.dtd"
   xmlns:inkscape="http://www.inkscape.org/namespaces/inkscape"
   width="64px"
   height="64px"
   id="svg3824"
   version="1.1"
   inkscape:version="0.48.2 r9819"
   sodipodi:docname="files.svg">
  <defs
     id="defs3826" />
  <sodipodi:namedview
     id="base"
     pagecolor="#ffffff"
     bordercolor="#666666"
     borderopacity="1.0"
     inkscape:pageopacity="0.0"
     inkscape:pageshadow="2"
     inkscape:zoom="5.5"
     inkscape:cx="-0.72727273"
     inkscape:cy="31.784549"
     inkscape:current-layer="layer1"
     showgrid="true"
     inkscape:document-units="px"
     inkscape:grid-bbox="true"
     inkscape:window-width="1366"
     inkscape:window-height="706"
     inkscape:window-x="-8"
     inkscape:window-y="-8"
     inkscape:window-maximized="1">
    <inkscape:grid
       type="xygrid"
       id="grid3832" />
  </sodipodi:namedview>
  <metadata
     id="metadata3829">
    <rdf:RDF>
      <cc:Work
         rdf:about="">
        <dc:format>image/svg+xml</dc:format>
        <dc:type
           rdf:resource="http://purl.org/dc/dcmitype/StillImage" />
      </cc:Work>
    </rdf:RDF>
  </metadata>
  <g
     id="layer1"
     inkscape:label="Layer 1"
     inkscape:groupmode="layer">
    <path
       style="fill:#000000;fill-opacity:1;fill-rule:nonzero;stroke:none"
       d="M 17 3.5 C 14.23 3.5 12 5.73 12 8.5 L 12 43.5 C 12 46.27 14.23 48.5 17 48.5 L 47 48.5 C 49.77 48.5 52 46.27 52 43.5 L 52 8.5 C 52 5.73 49.77 3.5 47 3.5 L 17 3.5 z M 22 11.5 L 42 11.5 C 43.385 11.5 44.5 12.615 44.5 14 C 44.5 15.385 43.385 16.5 42 16.5 L 22 16.5 C 20.615 16.5 19.5 15.385 19.5 14 C 19.5 12.615 20.615 11.5 22 11.5 z M 22 23.5 L 42 23.5 C 43.385 23.5 44.5 24.615 44.5 26 C 44.5 27.385 43.385 28.5 42 28.5 L 22 28.5 C 20.615 28.5 19.5 27.385 19.5 26 C 19.5 24.615 20.615 23.5 22 23.5 z M 22 35.5 L 42 35.5 C 43.385 35.5 44.5 36.615 44.5 38 C 44.5 39.385 43.385 40.5 42 40.5 L 22 40.5 C 20.615 40.5 19.5 39.385 19.5 38 C 19.5 36.615 20.615 35.5 22 35.5 z "
       id="rect2989" />
  </g>
</svg>
