<?xml version="1.0" encoding="UTF-8" standalone="no"?>
<!-- Created with Inkscape (http://www.inkscape.org/) -->

<svg
   xmlns:osb="http://www.openswatchbook.org/uri/2009/osb"
   xmlns:dc="http://purl.org/dc/elements/1.1/"
   xmlns:cc="http://creativecommons.org/ns#"
   xmlns:rdf="http://www.w3.org/1999/02/22-rdf-syntax-ns#"
   xmlns:svg="http://www.w3.org/2000/svg"
   xmlns="http://www.w3.org/2000/svg"
   xmlns:sodipodi="http://sodipodi.sourceforge.net/DTD/sodipodi-0.dtd"
   xmlns:inkscape="http://www.inkscape.org/namespaces/inkscape"
   width="145"
   height="145"
   id="svg3824"
   version="1.1"
   inkscape:version="0.48.2 r9819"
   sodipodi:docname="folder.svg">
  <defs
     id="defs3826">
    <linearGradient
       id="linearGradient3756"
       osb:paint="solid">
      <stop
         style="stop-color:#ffffff;stop-opacity:1;"
         offset="0"
         id="stop3758" />
    </linearGradient>
  </defs>
  <sodipodi:namedview
     id="base"
     pagecolor="#ffffff"
     bordercolor="#666666"
     borderopacity="1.0"
     inkscape:pageopacity="0.0"
     inkscape:pageshadow="2"
     inkscape:zoom="2.75"
     inkscape:cx="-0.53529677"
     inkscape:cy="62.436878"
     inkscape:current-layer="layer1"
     showgrid="true"
     inkscape:document-units="px"
     inkscape:grid-bbox="true"
     inkscape:window-width="1366"
     inkscape:window-height="706"
     inkscape:window-x="-8"
     inkscape:window-y="-8"
     inkscape:window-maximized="1">
    <inkscape:grid
       type="xygrid"
       id="grid3832"
       empspacing="5"
       visible="true"
       enabled="true"
       snapvisiblegridlinesonly="true" />
  </sodipodi:namedview>
  <metadata
     id="metadata3829">
    <rdf:RDF>
      <cc:Work
         rdf:about="">
        <dc:format>image/svg+xml</dc:format>
        <dc:type
           rdf:resource="http://purl.org/dc/dcmitype/StillImage" />
      </cc:Work>
    </rdf:RDF>
  </metadata>
  <g
     id="layer1"
     inkscape:label="Layer 1"
     inkscape:groupmode="layer"
     transform="translate(0,81)">
    <rect
       style="fill:none;stroke:#808080;stroke-width:9.995;stroke-miterlimit:4;stroke-opacity:1;stroke-dasharray:none"
       id="rect2986"
       width="145"
       height="145"
       x="-64"
       y="3.7747583e-015"
       rx="0.90909094"
       ry="0.90909094"
       transform="matrix(0,-1,1,0,0,0)" />
    <path
       style="fill:#808080;fill-opacity:1;fill-rule:nonzero;stroke:none"
       id="path264"
       inkscape:connector-curvature="0"
       d="m 129.96124,-37.096644 c 0.0858,-1.246224 0.16278,-2.165139 0.22579,-2.656978 0.69137,-5.418975 -4.66109,-7.363575 -4.66109,-7.363575 l -64.030023,0 0,-6.712457 -33.889596,0 0,6.712457 -5.081164,0 c 0,0 -7.307564,0.378068 -7.633123,6.808725 0.185534,0.77889 0.360565,1.970855 0.528595,3.477876 -1.466764,1.072943 -2.714738,2.767248 -2.847762,5.464483 2.009361,8.746323 3.026294,65.26574 3.026294,65.26574 l 1.312737,2.930027 110.121062,0 2.28241,-1.89209 c 0,0 2.32792,-59.906276 3.0473,-65.70857 0.38332,-3.089306 -1.00993,-5.098667 -2.40143,-6.325638" />
  </g>
</svg>
