<?xml version="1.0" encoding="UTF-8" standalone="no"?>
<!-- Created with Inkscape (http://www.inkscape.org/) -->

<svg
   xmlns:dc="http://purl.org/dc/elements/1.1/"
   xmlns:cc="http://creativecommons.org/ns#"
   xmlns:rdf="http://www.w3.org/1999/02/22-rdf-syntax-ns#"
   xmlns:svg="http://www.w3.org/2000/svg"
   xmlns="http://www.w3.org/2000/svg"
   xmlns:sodipodi="http://sodipodi.sourceforge.net/DTD/sodipodi-0.dtd"
   xmlns:inkscape="http://www.inkscape.org/namespaces/inkscape"
   width="64px"
   height="64px"
   id="svg3824"
   version="1.1"
   inkscape:version="0.48.2 r9819"
   sodipodi:docname="movies.svg">
  <defs
     id="defs3826" />
  <sodipodi:namedview
     id="base"
     pagecolor="#ffffff"
     bordercolor="#666666"
     borderopacity="1.0"
     inkscape:pageopacity="0.0"
     inkscape:pageshadow="2"
     inkscape:zoom="5.6568542"
     inkscape:cx="1.8261957"
     inkscape:cy="39.936986"
     inkscape:current-layer="layer1"
     showgrid="false"
     inkscape:document-units="px"
     inkscape:grid-bbox="true"
     inkscape:window-width="1366"
     inkscape:window-height="706"
     inkscape:window-x="-8"
     inkscape:window-y="-8"
     inkscape:window-maximized="1"
     inkscape:snap-grids="true">
    <inkscape:grid
       type="xygrid"
       id="grid3832" />
  </sodipodi:namedview>
  <metadata
     id="metadata3829">
    <rdf:RDF>
      <cc:Work
         rdf:about="">
        <dc:format>image/svg+xml</dc:format>
        <dc:type
           rdf:resource="http://purl.org/dc/dcmitype/StillImage" />
      </cc:Work>
    </rdf:RDF>
  </metadata>
  <g
     id="layer1"
     inkscape:label="Layer 1"
     inkscape:groupmode="layer">
    <g
       id="g3000"
       transform="matrix(-1,0,0,1,64.205138,0)">
      <path
         style="fill:#000000;fill-opacity:1;fill-rule:nonzero;stroke:none"
         id="path536"
         inkscape:connector-curvature="0"
         d="m 13.586018,31.084742 c 0,0 -5.4205377,0 -5.4205377,5.420538 l 0,3.921525 c 0,0 0,5.419583 5.4205377,5.419583 l 35.755477,0 c 0,0 5.419582,0 5.419582,-5.419583 l 0,-3.921525 c 0,0 0,-5.420538 -5.419582,-5.420538 l -35.755477,0" />
      <path
         style="fill:#000000;fill-opacity:1;fill-rule:nonzero;stroke:none"
         id="path538"
         inkscape:connector-curvature="0"
         d="m 8.1654803,38.704088 46.6032447,0 0,-9.447997 -46.6032447,0 0,9.447997 z" />
      <path
         style="fill:#000000;fill-opacity:1;fill-rule:nonzero;stroke:none"
         id="path540"
         inkscape:connector-curvature="0"
         d="m 39.105569,23.098291 -5.483635,0 -3.859385,4.766632 5.483634,0 3.859386,-4.766632 z m -15.476736,4.766632 3.86034,-4.766632 -5.33641,0 -3.859385,4.766632 5.335455,0 z m -11.469171,0 3.86034,-4.766632 -7.5151405,0 0,4.766632 3.6548005,0 z m 29.219282,0 13.729162,0 0,-4.766632 -9.868821,0 -3.860341,4.766632" />
      <path
         style="fill:#000000;fill-opacity:1;fill-rule:nonzero;stroke:none"
         id="path542"
         inkscape:connector-curvature="0"
         d="m 38.444014,19.435843 -5.343102,-1.2342 -2.689237,-5.512315 5.343102,1.2342 2.689237,5.512315 z m -14.008315,-8.126028 2.689237,5.512315 -5.199701,-1.20074 -2.688282,-5.512315 5.198746,1.20074 z M 13.260977,8.7295632 15.949259,14.241878 8.626274,12.551664 9.6989098,7.9074002 13.260977,8.7295632 z m 28.469776,6.5734778 13.377353,3.08789 -1.072636,4.644264 -9.61548,-2.219839 -2.689237,-5.512315" />
      <path
         style="fill:#000000;fill-opacity:1;fill-rule:nonzero;stroke:none"
         id="path544"
         inkscape:connector-curvature="0"
         d="m 54.719969,27.622098 c 0.842239,0 1.524826,-2.046802 1.524826,-4.572563 0,-2.52576 -0.682587,-4.573519 -1.524826,-4.573519 -0.841283,0 -1.523869,2.047759 -1.523869,4.573519 0,2.525761 0.682586,4.572563 1.523869,4.572563" />
    </g>
  </g>
</svg>
