<?xml version="1.0" encoding="UTF-8" standalone="no"?>
<!-- Created with Inkscape (http://www.inkscape.org/) -->

<svg
   xmlns:dc="http://purl.org/dc/elements/1.1/"
   xmlns:cc="http://creativecommons.org/ns#"
   xmlns:rdf="http://www.w3.org/1999/02/22-rdf-syntax-ns#"
   xmlns:svg="http://www.w3.org/2000/svg"
   xmlns="http://www.w3.org/2000/svg"
   xmlns:sodipodi="http://sodipodi.sourceforge.net/DTD/sodipodi-0.dtd"
   xmlns:inkscape="http://www.inkscape.org/namespaces/inkscape"
   width="64px"
   height="64px"
   id="svg3824"
   version="1.1"
   inkscape:version="0.48.2 r9819"
   sodipodi:docname="movies.svg">
  <defs
     id="defs3826" />
  <sodipodi:namedview
     id="base"
     pagecolor="#ffffff"
     bordercolor="#666666"
     borderopacity="1.0"
     inkscape:pageopacity="0.0"
     inkscape:pageshadow="2"
     inkscape:zoom="5.6568542"
     inkscape:cx="22.951011"
     inkscape:cy="39.936986"
     inkscape:current-layer="layer1"
     showgrid="false"
     inkscape:document-units="px"
     inkscape:grid-bbox="true"
     inkscape:window-width="1366"
     inkscape:window-height="706"
     inkscape:window-x="-8"
     inkscape:window-y="-8"
     inkscape:window-maximized="1"
     inkscape:snap-grids="true">
    <inkscape:grid
       type="xygrid"
       id="grid3832" />
  </sodipodi:namedview>
  <metadata
     id="metadata3829">
    <rdf:RDF>
      <cc:Work
         rdf:about="">
        <dc:format>image/svg+xml</dc:format>
        <dc:type
           rdf:resource="http://purl.org/dc/dcmitype/StillImage" />
      </cc:Work>
    </rdf:RDF>
  </metadata>
  <g
     id="layer1"
     inkscape:label="Layer 1"
     inkscape:groupmode="layer">
    <path
       inkscape:connector-curvature="0"
       style="fill:#000000;fill-opacity:1;fill-rule:nonzero;stroke:none"
       d="m 19.5,16 c -2.77,0 -5,2.23 -5,5 l 0,20 c 0,2.77 2.23,5 5,5 l 25,0 c 2.77,0 5,-2.23 5,-5 l 0,-20 c 0,-2.77 -2.23,-5 -5,-5 l -25,0 z m -3,2 3,0 -3,3 0,-3 z m 6,0 3,0 -3,3 -3,0 3,-3 z m 6,0 3,0 -3,3 -3,0 3,-3 z m 6,0 3,0 -3,3 -3,0 3,-3 z m 6,0 3,0 -3,3 -3,0 3,-3 z m 6,0 1,0 0,3 -4,0 3,-3 z"
       id="rect3004" />
    <path
       inkscape:connector-curvature="0"
       style="fill:#000000;fill-opacity:1;fill-rule:nonzero;stroke:none"
       d="m 16.277064,10.207885 c -1.323362,0.408582 -2.059809,1.802891 -1.651226,3.126252 0.408582,1.323362 1.80289,2.059809 3.126252,1.651226 L 46.416959,6.135205 C 47.74032,5.726623 48.476767,4.332315 48.068185,3.0089532 47.659602,1.6855918 46.265294,0.949145 44.941932,1.3577273 L 16.277064,10.207885 z m -0.182743,1.102998 2.866487,-0.885015 -1.981471,3.751502 -0.885016,-2.866487 z m 5.732974,-1.770031 2.866487,-0.885016 -1.981471,3.751503 -2.866487,0.885016 1.981471,-3.751503 z M 27.560269,7.77082 30.426755,6.885805 28.445284,10.637307 25.578797,11.522323 27.560269,7.77082 z M 33.293242,6.000789 36.159729,5.115773 34.178258,8.867276 31.311771,9.752291 33.293242,6.000789 z M 39.026216,4.230757 41.892703,3.3457414 39.911232,7.097244 37.044745,7.98226 39.026216,4.230757 z M 44.75919,2.4607256 45.714685,2.1657203 46.599701,5.032207 42.777719,6.212228 44.75919,2.4607256 z"
       id="rect3774"
       inkscape:transform-center-x="-14.019477"
       inkscape:transform-center-y="-4.3284547" />
  </g>
</svg>
