<?xml version="1.0" encoding="UTF-8" standalone="no"?>
<!-- Created with Inkscape (http://www.inkscape.org/) -->

<svg
   xmlns:dc="http://purl.org/dc/elements/1.1/"
   xmlns:cc="http://creativecommons.org/ns#"
   xmlns:rdf="http://www.w3.org/1999/02/22-rdf-syntax-ns#"
   xmlns:svg="http://www.w3.org/2000/svg"
   xmlns="http://www.w3.org/2000/svg"
   xmlns:sodipodi="http://sodipodi.sourceforge.net/DTD/sodipodi-0.dtd"
   xmlns:inkscape="http://www.inkscape.org/namespaces/inkscape"
   width="64px"
   height="64px"
   id="svg3824"
   version="1.1"
   inkscape:version="0.48.2 r9819"
   sodipodi:docname="movies.svg">
  <defs
     id="defs3826" />
  <sodipodi:namedview
     id="base"
     pagecolor="#ffffff"
     bordercolor="#666666"
     borderopacity="1.0"
     inkscape:pageopacity="0.0"
     inkscape:pageshadow="2"
     inkscape:zoom="5.6568542"
     inkscape:cx="15.519249"
     inkscape:cy="33.831126"
     inkscape:current-layer="layer1"
     showgrid="false"
     inkscape:document-units="px"
     inkscape:grid-bbox="true"
     inkscape:window-width="1366"
     inkscape:window-height="706"
     inkscape:window-x="-8"
     inkscape:window-y="-8"
     inkscape:window-maximized="1"
     inkscape:snap-grids="true">
    <inkscape:grid
       type="xygrid"
       id="grid3832" />
  </sodipodi:namedview>
  <metadata
     id="metadata3829">
    <rdf:RDF>
      <cc:Work
         rdf:about="">
        <dc:format>image/svg+xml</dc:format>
        <dc:type
           rdf:resource="http://purl.org/dc/dcmitype/StillImage" />
      </cc:Work>
    </rdf:RDF>
  </metadata>
  <g
     id="layer1"
     inkscape:label="Layer 1"
     inkscape:groupmode="layer">
    <g
       id="g4013"
       transform="translate(0,1.4522336)">
      <path
         inkscape:connector-curvature="0"
         id="rect2994"
         d="m 14,21 0,35 35,0 0,-35 -2,0 -5,4 -5,0 5,-4 -5,0 -5,4 -5,0 5,-4 -5,0 -5,4 -5,0 5,-4 -8,0 z m 0.5,14.5 10,0 0,10 -10,0 0,-10 z m 12,0 10,0 0,10 -10,0 0,-10 z m 12,0 10,0 0,10 -10,0 0,-10 z"
         style="fill:#000000;fill-opacity:1;fill-rule:nonzero;stroke:#000000;stroke-width:2;stroke-linecap:round;stroke-linejoin:round;stroke-miterlimit:4;stroke-opacity:1;stroke-dasharray:none" />
      <path
         inkscape:transform-center-y="-5.8919141"
         inkscape:transform-center-x="-15.726302"
         inkscape:connector-curvature="0"
         id="rect2996"
         d="m 13.343212,13.374896 1.403356,3.745743 2.809307,-1.052517 3.278824,-5.499938 -7.491487,2.806712 z M 25.516878,8.81399 22.238054,14.313927 26.920233,12.559733 30.199057,7.0597948 25.516878,8.81399 z m 9.364358,-3.5083899 -3.278824,5.4999379 4.68218,-1.754195 3.278823,-5.4999376 -4.682179,1.7541947 z M 44.245594,1.7972107 40.966771,7.2971486 47.521821,4.841276 46.118466,1.0955328 44.245594,1.7972107 z"
         style="fill:#000000;fill-opacity:1;fill-rule:nonzero;stroke:#000000;stroke-width:2;stroke-linecap:round;stroke-linejoin:round;stroke-miterlimit:4;stroke-opacity:1;stroke-dasharray:none" />
      <text
         transform="scale(1.0284586,0.97232888)"
         sodipodi:linespacing="125%"
         id="text3798"
         y="44.266373"
         x="28.766483"
         style="font-size:6.99014997px;font-style:normal;font-weight:normal;line-height:125%;letter-spacing:0px;word-spacing:0px;fill:#000000;fill-opacity:1;stroke:none;font-family:Sans"
         xml:space="preserve"><tspan
           y="44.266373"
           x="28.766483"
           id="tspan3800"
           sodipodi:role="line">2</tspan></text>
      <text
         transform="scale(1.0284586,0.97232888)"
         sodipodi:linespacing="125%"
         id="text3798-4"
         y="44.256149"
         x="40.477089"
         style="font-size:6.99014997px;font-style:normal;font-weight:normal;line-height:125%;letter-spacing:0px;word-spacing:0px;fill:#000000;fill-opacity:1;stroke:none;font-family:Sans"
         xml:space="preserve"><tspan
           y="44.256149"
           x="40.477089"
           id="tspan3800-0"
           sodipodi:role="line">4</tspan><tspan
           id="tspan3823"
           y="52.993835"
           x="40.477089"
           sodipodi:role="line" /></text>
      <text
         transform="scale(1.0284586,0.97232888)"
         sodipodi:linespacing="125%"
         id="text3798-4-9"
         y="44.223724"
         x="17.00979"
         style="font-size:6.99014997px;font-style:normal;font-weight:normal;line-height:125%;letter-spacing:0px;word-spacing:0px;fill:#000000;fill-opacity:1;stroke:none;font-family:Sans"
         xml:space="preserve"><tspan
           id="tspan3849"
           y="44.223724"
           x="17.00979"
           sodipodi:role="line">7</tspan><tspan
           id="tspan3823-8"
           y="52.961411"
           x="17.00979"
           sodipodi:role="line" /></text>
    </g>
  </g>
</svg>
