<?xml version="1.0" encoding="UTF-8" standalone="no"?>
<!-- Created with Inkscape (http://www.inkscape.org/) -->

<svg
   xmlns:dc="http://purl.org/dc/elements/1.1/"
   xmlns:cc="http://creativecommons.org/ns#"
   xmlns:rdf="http://www.w3.org/1999/02/22-rdf-syntax-ns#"
   xmlns:svg="http://www.w3.org/2000/svg"
   xmlns="http://www.w3.org/2000/svg"
   xmlns:sodipodi="http://sodipodi.sourceforge.net/DTD/sodipodi-0.dtd"
   xmlns:inkscape="http://www.inkscape.org/namespaces/inkscape"
   width="200"
   height="200"
   id="svg3462"
   version="1.1"
   inkscape:version="0.48.2 r9819"
   sodipodi:docname="New document 11">
  <defs
     id="defs3464" />
  <sodipodi:namedview
     id="base"
     pagecolor="#ffffff"
     bordercolor="#666666"
     borderopacity="1.0"
     inkscape:pageopacity="0.0"
     inkscape:pageshadow="2"
     inkscape:zoom="1.0717735"
     inkscape:cx="229.44685"
     inkscape:cy="133.48463"
     inkscape:document-units="px"
     inkscape:current-layer="layer1"
     showgrid="false"
     inkscape:window-width="1600"
     inkscape:window-height="838"
     inkscape:window-x="1358"
     inkscape:window-y="-8"
     inkscape:window-maximized="1" />
  <metadata
     id="metadata3467">
    <rdf:RDF>
      <cc:Work
         rdf:about="">
        <dc:format>image/svg+xml</dc:format>
        <dc:type
           rdf:resource="http://purl.org/dc/dcmitype/StillImage" />
        <dc:title></dc:title>
      </cc:Work>
    </rdf:RDF>
  </metadata>
  <g
     inkscape:label="Layer 1"
     inkscape:groupmode="layer"
     id="layer1"
     transform="translate(0,-852.36218)">
    <path
       style="fill:#000000;stroke:#000000;stroke-width:3.09905744000000020;stroke-linecap:butt;stroke-linejoin:miter;stroke-miterlimit:4;stroke-opacity:1;stroke-dasharray:none;fill-opacity:1"
       id="path148"
       inkscape:connector-curvature="0"
       d="m 161.8169,995.01613 0,-124.36521 -87.848979,16.96102 0,107.57769 c -3.56082,-1.909 -7.68876,-3.0712 -12.15141,-3.0712 -13.05013,0 -23.63341,9.38997 -23.63341,20.97747 0,11.5844 10.58328,20.9775 23.63341,20.9775 13.05323,0 23.63342,-9.3931 23.63342,-20.9775 0,-0.4557 -0.11777,-0.8801 -0.14876,-1.3264 l 0.0897,0.092 0,-85.94287 67.568749,-15.96962 0,72.36922 c -4.06596,-2.9285 -9.17631,-4.7569 -14.81969,-4.7569 -13.05323,0 -23.63342,9.3901 -23.63342,20.9744 0,11.58707 10.58019,20.97737 23.63342,20.97737 13.05323,0 23.63341,-9.3903 23.63341,-20.97737 0,-1.2305 -0.17975,-2.4205 -0.40908,-3.5919 l 0.45247,0.072 z" />
  </g>
</svg>
